<svg id="svg" version="1.1" xmlns="http://www.w3.org/2000/svg" xmlns:xlink="http://www.w3.org/1999/xlink" width="400" height="389.821882951654" viewBox="0, 0, 400,389.821882951654"><g id="svgg"><path id="path0" d="M188.398 212.963 C 187.947 213.445,187.229 214.654,186.803 215.649 C 186.378 216.644,185.839 217.575,185.607 217.719 C 185.375 217.862,185.185 218.296,185.185 218.682 C 185.185 219.068,184.765 220.004,184.251 220.761 C 183.737 221.519,183.200 222.665,183.059 223.309 C 182.918 223.954,182.461 224.789,182.044 225.166 C 181.627 225.543,181.281 226.132,181.274 226.474 C 181.262 227.102,179.336 231.207,178.644 232.080 C 178.438 232.341,178.062 233.197,177.809 233.984 C 177.555 234.771,177.098 235.622,176.793 235.875 C 176.488 236.129,176.129 236.921,175.995 237.636 C 175.861 238.350,175.428 239.228,175.032 239.586 C 174.637 239.944,174.193 240.789,174.045 241.463 C 173.898 242.138,173.450 243.108,173.049 243.620 C 172.648 244.131,172.320 244.709,172.320 244.903 C 172.320 245.262,170.275 249.612,169.603 250.682 C 169.401 251.004,168.881 252.057,168.448 253.021 C 168.015 253.986,167.510 255.039,167.325 255.361 C 167.140 255.682,166.535 256.910,165.980 258.090 C 163.091 264.227,160.487 269.434,160.227 269.595 C 160.065 269.695,159.821 270.369,159.686 271.092 C 159.550 271.816,159.112 272.704,158.712 273.066 C 158.312 273.428,157.878 274.256,157.748 274.907 C 157.618 275.557,157.159 276.584,156.728 277.189 C 156.298 277.793,155.945 278.470,155.945 278.692 C 155.945 278.914,155.156 280.617,154.191 282.477 C 153.226 284.337,152.437 286.075,152.437 286.339 C 152.437 286.603,152.104 287.120,151.697 287.488 C 151.290 287.856,150.768 288.911,150.536 289.833 C 150.304 290.755,149.847 291.730,149.521 292.001 C 149.195 292.272,148.928 292.652,148.928 292.846 C 148.928 293.429,146.209 298.973,145.799 299.226 C 145.590 299.355,145.419 299.777,145.419 300.164 C 145.419 300.550,144.981 301.512,144.444 302.302 C 143.908 303.092,143.470 304.068,143.470 304.471 C 143.470 304.874,143.031 305.725,142.495 306.362 C 141.959 306.999,141.520 307.746,141.520 308.021 C 141.520 308.649,137.306 317.257,136.865 317.530 C 136.687 317.640,136.430 318.322,136.294 319.045 C 136.158 319.769,135.710 320.666,135.297 321.040 C 134.885 321.413,134.427 322.270,134.279 322.945 C 134.132 323.620,133.683 324.590,133.283 325.101 C 132.882 325.613,132.554 326.243,132.554 326.501 C 132.554 326.912,130.955 330.188,129.538 332.681 C 129.273 333.147,129.054 333.802,129.051 334.137 C 129.047 334.472,128.729 335.086,128.343 335.502 C 126.589 337.390,127.857 339.609,130.975 340.108 C 131.779 340.236,132.867 340.680,133.393 341.094 C 133.919 341.508,135.042 341.970,135.888 342.121 C 136.734 342.272,138.041 342.697,138.791 343.066 C 140.450 343.881,143.505 344.951,145.614 345.455 C 146.472 345.661,147.995 346.175,149.000 346.598 C 150.005 347.022,151.321 347.372,151.924 347.377 C 152.528 347.382,153.811 347.751,154.776 348.197 C 155.741 348.644,157.762 349.153,159.267 349.329 C 160.772 349.505,162.790 349.934,163.750 350.281 C 164.711 350.628,167.515 351.069,169.981 351.260 C 172.446 351.451,175.517 351.922,176.803 352.307 C 180.593 353.441,210.247 353.281,215.735 352.096 C 217.849 351.640,220.857 351.267,222.419 351.267 C 224.166 351.267,226.239 350.964,227.807 350.480 C 229.208 350.047,231.551 349.535,233.014 349.341 C 234.476 349.147,236.368 348.624,237.217 348.179 C 238.066 347.733,239.356 347.368,240.082 347.368 C 240.808 347.368,241.955 347.106,242.631 346.786 C 243.823 346.221,247.694 345.000,250.877 344.185 C 251.735 343.966,253.051 343.474,253.801 343.092 C 254.552 342.710,255.780 342.265,256.530 342.103 C 257.281 341.941,258.288 341.501,258.769 341.124 C 259.249 340.747,260.296 340.316,261.095 340.166 C 261.893 340.017,263.018 339.558,263.595 339.148 C 264.171 338.737,264.774 338.402,264.935 338.402 C 265.306 338.402,269.142 336.681,271.032 335.667 C 271.825 335.241,272.712 334.893,273.003 334.893 C 273.295 334.893,274.127 334.454,274.854 333.918 C 275.580 333.382,276.470 332.943,276.831 332.943 C 277.192 332.943,277.728 332.653,278.022 332.298 C 278.317 331.943,279.116 331.419,279.800 331.134 C 280.483 330.848,281.683 330.179,282.468 329.647 C 283.252 329.115,284.579 328.377,285.417 328.007 C 286.254 327.638,286.940 327.197,286.940 327.028 C 286.940 326.860,287.597 326.361,288.402 325.920 C 289.206 325.479,290.565 324.597,291.423 323.959 C 292.281 323.322,293.724 322.285,294.629 321.654 C 296.795 320.147,304.565 313.746,306.943 311.509 C 307.975 310.540,309.155 309.590,309.566 309.398 C 309.978 309.207,310.418 308.725,310.544 308.326 C 310.670 307.928,310.909 307.602,311.073 307.602 C 311.661 307.602,320.862 298.197,323.937 294.454 C 325.658 292.358,327.427 290.205,327.868 289.669 C 329.834 287.277,334.113 281.448,334.113 281.160 C 334.113 280.985,334.552 280.461,335.088 279.995 C 335.624 279.529,336.062 278.952,336.062 278.714 C 336.062 278.475,336.501 277.759,337.037 277.122 C 337.573 276.485,338.012 275.714,338.012 275.409 C 338.012 275.103,338.152 274.854,338.324 274.854 C 338.496 274.854,339.066 274.036,339.591 273.036 C 340.116 272.035,340.838 270.665,341.196 269.991 C 341.554 269.316,342.124 268.534,342.463 268.253 C 342.802 267.971,343.080 267.445,343.080 267.085 C 343.080 266.724,343.519 265.834,344.055 265.107 C 344.591 264.381,345.029 263.581,345.029 263.331 C 345.029 263.081,345.717 261.625,346.558 260.096 C 347.398 258.566,348.284 256.714,348.527 255.979 C 348.769 255.244,349.208 254.444,349.502 254.200 C 349.796 253.956,350.152 253.070,350.294 252.231 C 350.436 251.392,350.888 250.278,351.299 249.755 C 351.710 249.232,352.047 248.468,352.047 248.055 C 352.047 247.643,352.485 246.443,353.020 245.388 C 353.555 244.333,354.000 243.119,354.008 242.690 C 354.016 242.261,354.362 241.209,354.776 240.351 C 355.190 239.493,355.535 238.522,355.542 238.192 C 355.550 237.862,355.912 236.897,356.347 236.047 C 356.783 235.198,357.298 233.388,357.493 232.026 C 357.688 230.663,358.141 229.224,358.499 228.828 C 358.887 228.400,359.269 227.032,359.443 225.447 C 359.603 223.982,360.038 222.199,360.408 221.483 C 361.075 220.193,361.985 213.101,361.570 212.429 C 361.448 212.233,324.503 212.086,275.289 212.086 L 189.220 212.086 188.398 212.963 " stroke="none" fill="#047c34" fill-rule="evenodd"></path><path id="path1" d="M187.427 15.886 C 190.911 15.951,196.613 15.951,200.097 15.886 C 203.582 15.822,200.731 15.769,193.762 15.769 C 186.793 15.769,183.942 15.822,187.427 15.886 M273.419 37.748 C 273.093 38.536,272.601 39.444,272.324 39.766 C 272.048 40.088,271.704 40.903,271.561 41.578 C 271.418 42.252,270.960 43.113,270.543 43.490 C 270.127 43.867,269.784 44.455,269.783 44.797 C 269.781 45.371,269.461 46.103,268.319 48.148 C 268.079 48.577,266.903 50.982,265.706 53.492 C 264.508 56.002,263.371 58.153,263.178 58.272 C 262.986 58.391,262.709 59.032,262.563 59.695 C 262.417 60.359,261.877 61.522,261.363 62.280 C 260.849 63.037,260.429 63.832,260.429 64.045 C 260.429 64.259,258.738 67.875,256.672 72.081 C 254.606 76.286,251.673 82.271,250.156 85.380 C 248.639 88.489,247.084 91.452,246.700 91.963 C 246.317 92.474,246.000 93.264,245.995 93.717 C 245.990 94.171,245.643 94.981,245.224 95.517 C 244.805 96.053,244.458 96.633,244.453 96.807 C 244.437 97.389,239.770 106.774,239.376 107.018 C 239.162 107.150,238.986 107.558,238.986 107.925 C 238.986 108.291,238.548 109.236,238.012 110.025 C 237.476 110.814,237.037 111.786,237.037 112.184 C 237.037 112.583,236.598 113.503,236.062 114.230 C 235.526 114.957,235.088 115.846,235.088 116.207 C 235.088 116.568,234.853 117.058,234.567 117.296 C 234.281 117.533,233.813 118.434,233.528 119.298 C 233.243 120.162,232.776 121.063,232.489 121.301 C 232.203 121.538,231.969 122.038,231.969 122.410 C 231.969 122.783,231.557 123.694,231.054 124.436 C 230.551 125.177,230.013 126.287,229.859 126.903 C 229.704 127.519,229.239 128.499,228.824 129.081 C 228.409 129.663,228.070 130.288,228.069 130.470 C 228.068 130.888,223.980 139.057,223.456 139.689 C 223.241 139.948,222.936 140.686,222.779 141.328 C 222.622 141.970,222.169 142.914,221.773 143.425 C 221.377 143.936,221.053 144.525,221.053 144.732 C 221.053 144.940,219.320 148.644,217.202 152.964 C 211.252 165.099,211.159 165.311,211.563 165.715 C 211.793 165.945,240.336 166.047,287.545 165.985 L 363.158 165.887 363.275 164.287 C 363.339 163.407,363.020 160.951,362.564 158.829 C 362.109 156.707,361.590 153.655,361.410 152.047 C 361.231 150.439,360.717 148.200,360.269 147.072 C 359.821 145.944,359.454 144.326,359.454 143.478 C 359.454 142.629,359.106 141.267,358.681 140.451 C 358.256 139.635,357.729 138.025,357.510 136.872 C 357.292 135.719,356.951 134.580,356.753 134.341 C 356.555 134.103,356.179 133.033,355.917 131.964 C 355.656 130.894,355.225 129.581,354.961 129.045 C 354.696 128.509,354.349 127.456,354.190 126.706 C 354.030 125.955,353.592 124.903,353.216 124.366 C 352.841 123.830,352.402 122.778,352.242 122.027 C 352.081 121.277,351.621 120.197,351.219 119.628 C 350.816 119.059,350.487 118.357,350.486 118.068 C 350.486 117.780,349.696 115.973,348.732 114.052 C 347.768 112.132,346.979 110.368,346.979 110.132 C 346.979 109.896,346.540 109.109,346.004 108.382 C 345.468 107.655,345.029 106.813,345.029 106.511 C 345.029 106.208,344.591 105.439,344.055 104.802 C 343.519 104.165,343.080 103.328,343.080 102.942 C 343.080 102.556,342.818 102.022,342.498 101.756 C 342.177 101.491,341.353 100.285,340.666 99.077 C 339.979 97.869,338.677 95.796,337.774 94.470 C 336.870 93.144,336.016 91.697,335.876 91.254 C 335.735 90.811,335.486 90.448,335.321 90.448 C 335.157 90.448,334.340 89.440,333.505 88.207 C 332.143 86.195,330.072 83.453,327.835 80.702 C 327.400 80.166,326.514 79.025,325.867 78.168 C 323.688 75.278,314.069 65.299,307.628 59.246 C 306.968 58.627,302.783 55.205,300.834 53.692 C 300.220 53.216,299.333 52.473,298.862 52.042 C 298.391 51.611,296.785 50.424,295.294 49.405 C 293.802 48.386,292.075 47.116,291.455 46.583 C 290.834 46.050,290.160 45.614,289.957 45.614 C 289.753 45.614,289.101 45.219,288.507 44.737 C 287.913 44.254,286.923 43.558,286.306 43.189 C 285.690 42.819,284.834 42.295,284.405 42.024 C 280.451 39.519,279.499 38.952,278.881 38.733 C 278.488 38.595,277.641 38.097,276.998 37.629 C 274.888 36.090,274.092 36.117,273.419 37.748 " stroke="none" fill="#8cbc2c" fill-rule="evenodd"></path><path id="path2" d="M192.690 15.892 C 184.359 15.956,179.337 16.137,179.337 16.374 C 179.337 17.183,176.324 17.957,172.351 18.170 C 170.082 18.291,167.524 18.661,166.667 18.992 C 165.809 19.323,163.528 19.820,161.598 20.096 C 159.669 20.372,157.352 20.872,156.451 21.207 C 155.550 21.542,153.884 21.982,152.748 22.186 C 150.768 22.540,148.836 23.096,145.029 24.406 C 144.064 24.738,142.500 25.192,141.552 25.416 C 140.605 25.639,139.289 26.152,138.629 26.555 C 137.968 26.958,137.075 27.288,136.644 27.289 C 136.214 27.290,135.037 27.729,134.030 28.265 C 133.023 28.801,131.978 29.240,131.708 29.240 C 131.239 29.240,129.157 30.207,121.509 33.976 C 119.615 34.909,117.598 35.901,117.025 36.180 C 116.453 36.459,115.721 36.848,115.400 37.044 C 115.078 37.241,113.499 38.143,111.891 39.050 C 110.283 39.956,108.002 41.365,106.823 42.181 C 105.643 42.996,104.490 43.664,104.259 43.664 C 104.028 43.664,103.428 44.103,102.924 44.639 C 102.420 45.175,101.847 45.614,101.649 45.614 C 101.077 45.614,91.928 52.496,87.396 56.335 C 80.185 62.444,70.021 73.029,64.052 80.645 C 59.504 86.447,58.927 87.221,57.613 89.279 C 56.860 90.458,55.870 91.845,55.412 92.360 C 54.955 92.875,54.581 93.443,54.581 93.623 C 54.581 93.802,53.824 95.135,52.899 96.585 C 51.974 98.034,51.087 99.483,50.928 99.805 C 50.768 100.127,50.166 101.218,49.588 102.230 C 47.214 106.392,41.715 117.652,41.715 118.352 C 41.715 118.606,41.475 119.013,41.181 119.257 C 40.886 119.501,40.546 120.313,40.425 121.063 C 40.303 121.812,39.842 122.932,39.400 123.553 C 38.958 124.174,38.596 125.107,38.596 125.628 C 38.596 126.148,38.159 127.437,37.623 128.491 C 37.088 129.546,36.650 130.813,36.649 131.306 C 36.648 131.799,36.395 132.689,36.088 133.284 C 35.513 134.396,34.397 138.322,33.192 143.470 C 32.815 145.078,32.308 146.760,32.064 147.207 C 31.820 147.654,31.446 149.671,31.233 151.690 C 31.020 153.709,30.572 156.238,30.238 157.310 C 29.903 158.382,29.533 161.365,29.416 163.938 C 29.177 169.179,28.286 173.489,27.442 173.489 C 26.992 173.489,26.901 175.407,26.901 184.795 C 26.901 194.490,26.982 196.101,27.474 196.101 C 28.382 196.101,29.147 199.676,29.404 205.115 C 29.556 208.319,29.886 210.766,30.353 212.132 C 30.746 213.286,31.180 215.699,31.315 217.494 C 31.451 219.289,31.751 220.985,31.982 221.263 C 32.213 221.541,32.726 223.318,33.123 225.212 C 33.520 227.106,34.017 229.181,34.227 229.825 C 36.198 235.850,36.647 237.348,36.647 237.891 C 36.647 238.236,37.084 239.458,37.618 240.605 C 38.152 241.752,38.591 243.067,38.593 243.527 C 38.595 243.988,39.033 245.128,39.566 246.062 C 40.100 246.995,40.539 248.004,40.541 248.304 C 40.544 248.604,40.998 249.833,41.550 251.033 C 42.103 252.234,42.782 253.743,43.060 254.386 C 43.885 256.298,46.059 260.968,46.418 261.598 C 46.601 261.920,47.253 263.148,47.866 264.327 C 50.315 269.037,51.922 271.860,52.458 272.397 C 52.768 272.707,53.021 273.120,53.021 273.315 C 53.021 273.510,53.679 274.652,54.483 275.854 C 55.288 277.055,56.229 278.547,56.575 279.168 C 56.921 279.790,57.908 281.222,58.767 282.352 C 59.626 283.481,60.834 285.185,61.451 286.138 C 62.068 287.091,62.927 288.231,63.359 288.672 C 63.791 289.113,65.546 291.228,67.258 293.372 C 72.448 299.872,87.356 314.891,88.138 314.407 C 88.288 314.314,88.533 313.585,88.683 312.786 C 88.833 311.986,89.292 310.861,89.702 310.284 C 90.113 309.708,90.448 309.127,90.448 308.993 C 90.448 308.503,94.902 299.595,95.396 299.095 C 95.677 298.812,95.906 298.232,95.906 297.807 C 95.906 297.382,96.345 296.389,96.881 295.600 C 97.417 294.811,97.860 293.900,97.864 293.574 C 97.869 293.249,98.216 292.544,98.635 292.008 C 99.055 291.472,99.402 290.897,99.407 290.730 C 99.422 290.201,102.149 284.644,102.500 284.427 C 102.684 284.313,102.947 283.627,103.082 282.904 C 103.218 282.180,103.677 281.274,104.101 280.890 C 104.526 280.505,104.873 279.814,104.873 279.353 C 104.873 278.891,105.312 277.920,105.848 277.193 C 106.384 276.466,106.823 275.671,106.823 275.426 C 106.823 275.030,109.690 268.886,110.819 266.862 C 111.059 266.433,111.497 265.556,111.793 264.912 C 112.089 264.269,112.495 263.436,112.696 263.060 C 112.896 262.685,113.225 262.071,113.427 261.696 C 113.765 261.066,116.045 256.231,117.517 253.021 C 117.861 252.271,118.427 251.131,118.774 250.487 C 119.121 249.844,119.613 248.879,119.867 248.343 C 120.121 247.807,120.515 247.018,120.742 246.589 C 122.141 243.944,126.706 234.311,126.706 234.004 C 126.706 233.800,127.031 233.215,127.429 232.704 C 127.826 232.192,128.362 231.130,128.618 230.343 C 128.875 229.556,129.339 228.701,129.650 228.443 C 129.960 228.186,130.214 227.718,130.214 227.403 C 130.214 226.696,134.012 218.860,134.971 217.589 C 135.357 217.077,135.673 216.271,135.673 215.797 C 135.673 215.323,136.013 214.627,136.430 214.250 C 136.847 213.873,137.308 213.012,137.456 212.338 C 137.603 211.663,138.051 210.693,138.452 210.181 C 138.853 209.670,139.181 209.092,139.181 208.896 C 139.181 208.281,141.849 202.813,142.279 202.547 C 142.505 202.407,142.690 201.977,142.690 201.591 C 142.690 201.205,143.129 200.242,143.665 199.452 C 144.201 198.662,144.639 197.751,144.639 197.428 C 144.639 197.104,145.078 196.194,145.614 195.405 C 146.150 194.616,146.589 193.771,146.589 193.528 C 146.589 192.910,150.836 184.477,151.288 184.197 C 151.491 184.072,151.658 183.673,151.659 183.310 C 151.662 182.704,151.952 182.029,153.120 179.922 C 153.358 179.493,154.802 176.511,156.328 173.294 C 157.854 170.078,159.352 167.008,159.657 166.472 C 159.961 165.936,160.416 165.058,160.667 164.522 C 163.139 159.257,166.585 152.125,166.884 151.657 C 167.089 151.335,167.450 150.634,167.685 150.097 C 168.534 148.165,169.203 146.773,169.557 146.199 C 170.158 145.224,173.879 137.347,173.879 137.049 C 173.879 136.895,174.230 136.324,174.659 135.779 C 175.088 135.234,175.439 134.484,175.439 134.113 C 175.439 133.742,175.779 133.006,176.194 132.478 C 176.610 131.950,177.075 131.005,177.228 130.379 C 177.381 129.752,177.831 128.821,178.227 128.310 C 178.623 127.799,178.947 127.221,178.947 127.027 C 178.947 126.452,181.245 121.709,181.642 121.464 C 181.842 121.340,182.117 120.736,182.252 120.122 C 182.387 119.507,182.926 118.422,183.451 117.711 C 183.976 117.000,184.405 116.092,184.405 115.693 C 184.405 115.294,184.844 114.323,185.380 113.534 C 185.916 112.745,186.355 111.956,186.355 111.780 C 186.355 111.517,189.870 104.195,190.980 102.144 C 191.155 101.823,191.746 100.595,192.294 99.415 C 193.924 95.908,198.862 85.637,199.322 84.795 C 199.939 83.668,200.652 82.211,201.134 81.092 C 201.365 80.556,201.724 79.854,201.931 79.532 C 202.139 79.211,203.368 76.721,204.664 73.999 C 205.959 71.278,207.194 68.943,207.408 68.811 C 207.622 68.678,207.797 68.176,207.797 67.694 C 207.797 67.212,208.236 66.224,208.772 65.497 C 209.308 64.770,209.747 63.993,209.747 63.770 C 209.747 63.433,214.369 53.661,215.614 51.365 C 216.988 48.831,220.663 41.000,220.663 40.605 C 220.663 40.410,220.915 40.042,221.223 39.787 C 221.530 39.531,221.893 38.816,222.029 38.198 C 222.165 37.580,222.604 36.657,223.005 36.147 C 223.405 35.638,223.859 34.709,224.013 34.082 C 224.167 33.456,224.704 32.333,225.207 31.586 C 225.710 30.839,226.121 30.075,226.121 29.887 C 226.121 29.075,229.822 22.132,230.513 21.648 C 231.591 20.892,231.098 20.403,228.952 20.103 C 227.931 19.959,226.043 19.516,224.756 19.117 C 223.470 18.719,220.610 18.288,218.401 18.160 C 214.516 17.935,211.696 17.206,211.696 16.426 C 211.696 15.885,207.814 15.776,192.690 15.892 " stroke="none" fill="#dcdb04" fill-rule="evenodd"></path><path id="path3" d="M176.559 15.384 C 176.460 15.482,174.550 15.662,172.313 15.783 C 170.076 15.904,168.075 16.175,167.866 16.384 C 167.657 16.593,166.138 16.764,164.492 16.764 C 162.307 16.764,161.368 16.922,161.014 17.349 C 160.747 17.671,160.023 17.934,159.406 17.934 C 158.789 17.934,158.285 18.109,158.285 18.324 C 158.285 18.539,157.270 18.713,156.020 18.713 C 154.632 18.713,153.462 18.935,152.998 19.286 C 152.582 19.601,151.518 19.864,150.633 19.871 C 149.691 19.878,148.822 20.126,148.538 20.468 C 148.271 20.789,147.636 21.053,147.126 21.053 C 146.616 21.053,146.199 21.228,146.199 21.442 C 146.199 21.657,145.316 21.832,144.237 21.832 C 142.853 21.832,142.210 22.005,142.051 22.417 C 141.928 22.739,141.407 23.002,140.894 23.002 C 140.381 23.002,139.961 23.155,139.961 23.341 C 139.961 23.528,139.133 23.774,138.122 23.888 C 137.110 24.002,136.219 24.288,136.140 24.523 C 136.062 24.759,135.749 24.951,135.445 24.951 C 135.141 24.951,134.893 25.214,134.893 25.536 C 134.893 25.978,134.416 26.121,132.943 26.121 C 131.871 26.121,130.994 26.277,130.994 26.468 C 130.994 26.660,130.556 26.926,130.019 27.061 C 129.483 27.195,129.045 27.477,129.045 27.688 C 129.045 27.898,128.594 28.070,128.042 28.070 C 127.491 28.070,126.777 28.333,126.455 28.655 C 126.133 28.977,125.444 29.240,124.923 29.240 C 124.403 29.240,123.977 29.396,123.977 29.587 C 123.977 29.779,123.538 30.045,123.002 30.180 C 122.466 30.314,122.027 30.596,122.027 30.807 C 122.027 31.017,121.565 31.189,121.000 31.189 C 120.405 31.189,119.592 31.599,119.069 32.164 C 118.486 32.793,117.744 33.138,116.978 33.138 C 116.181 33.138,115.789 33.331,115.789 33.723 C 115.789 34.045,115.526 34.308,115.205 34.308 C 114.883 34.308,114.620 34.483,114.620 34.698 C 114.620 34.912,114.181 35.088,113.645 35.088 C 113.039 35.088,112.671 35.309,112.671 35.673 C 112.671 35.994,112.434 36.257,112.146 36.257 C 111.460 36.257,109.274 37.320,107.797 38.370 C 107.154 38.827,105.970 39.544,105.166 39.962 C 104.362 40.381,103.704 40.859,103.704 41.024 C 103.704 41.190,103.505 41.326,103.261 41.326 C 103.018 41.326,102.412 41.764,101.915 42.300 C 101.418 42.836,100.828 43.275,100.603 43.275 C 100.379 43.275,100.195 43.538,100.195 43.860 C 100.195 44.224,99.827 44.444,99.220 44.444 C 98.684 44.444,98.246 44.620,98.246 44.834 C 98.246 45.049,97.889 45.224,97.454 45.224 C 97.018 45.224,96.561 45.487,96.437 45.809 C 96.314 46.131,95.987 46.394,95.712 46.394 C 95.436 46.394,95.109 46.657,94.986 46.979 C 94.862 47.300,94.520 47.563,94.225 47.563 C 93.930 47.563,92.774 48.441,91.656 49.513 C 90.538 50.585,89.394 51.462,89.116 51.462 C 88.837 51.462,88.279 51.901,87.876 52.437 C 87.474 52.973,86.923 53.411,86.652 53.411 C 86.381 53.411,86.160 53.674,86.160 53.996 C 86.160 54.318,85.971 54.581,85.740 54.581 C 85.194 54.581,83.041 56.734,83.041 57.280 C 83.041 57.511,82.705 57.700,82.294 57.700 C 81.547 57.700,71.700 67.163,69.785 69.722 C 69.249 70.437,68.592 71.258,68.324 71.546 C 68.056 71.834,67.836 72.257,67.836 72.487 C 67.836 72.717,67.655 72.904,67.433 72.904 C 67.031 72.904,64.717 75.091,64.717 75.471 C 64.717 75.581,64.279 76.077,63.743 76.574 C 63.207 77.071,62.768 77.662,62.768 77.888 C 62.768 78.114,62.066 79.029,61.209 79.922 C 60.351 80.815,59.649 81.882,59.649 82.293 C 59.649 82.704,59.386 83.041,59.064 83.041 C 58.743 83.041,58.480 83.262,58.480 83.533 C 58.480 83.804,58.041 84.355,57.505 84.757 C 56.969 85.160,56.530 85.797,56.530 86.173 C 56.530 86.549,56.267 86.957,55.945 87.081 C 55.624 87.204,55.361 87.674,55.361 88.125 C 55.361 88.998,54.521 90.058,53.829 90.058 C 53.599 90.058,53.411 90.322,53.411 90.643 C 53.411 90.965,53.236 91.228,53.021 91.228 C 52.807 91.228,52.632 91.667,52.632 92.203 C 52.632 92.809,52.411 93.177,52.047 93.177 C 51.719 93.177,51.462 93.525,51.462 93.969 C 51.462 94.405,51.199 94.862,50.877 94.986 C 50.556 95.109,50.292 95.455,50.292 95.753 C 50.292 96.052,50.117 96.296,49.903 96.296 C 49.688 96.296,49.513 96.735,49.513 97.271 C 49.513 97.877,49.292 98.246,48.928 98.246 C 48.606 98.246,48.343 98.509,48.343 98.830 C 48.343 99.152,48.168 99.415,47.953 99.415 C 47.739 99.415,47.563 99.772,47.563 100.207 C 47.563 100.643,47.300 101.100,46.979 101.224 C 46.657 101.347,46.394 101.849,46.394 102.339 C 46.394 102.829,46.131 103.331,45.809 103.455 C 45.487 103.578,45.224 104.036,45.224 104.471 C 45.224 104.907,45.049 105.263,44.834 105.263 C 44.620 105.263,44.444 105.789,44.444 106.433 C 44.444 107.103,44.237 107.606,43.957 107.612 C 43.431 107.622,42.105 110.000,42.105 110.932 C 42.105 111.245,41.930 111.501,41.715 111.501 C 41.501 111.501,41.326 111.921,41.326 112.434 C 41.326 112.947,41.044 113.475,40.700 113.607 C 40.350 113.741,40.171 114.097,40.294 114.417 C 40.414 114.731,40.257 115.243,39.944 115.555 C 39.632 115.868,39.376 116.668,39.376 117.333 C 39.376 118.049,39.137 118.635,38.791 118.767 C 38.470 118.891,38.207 119.393,38.207 119.883 C 38.207 120.373,37.943 120.875,37.622 120.999 C 37.284 121.129,37.037 121.711,37.037 122.382 C 37.037 123.019,36.862 123.649,36.647 123.782 C 36.433 123.914,36.257 124.451,36.257 124.974 C 36.257 125.560,36.033 125.926,35.673 125.926 C 35.250 125.926,35.088 126.359,35.088 127.485 C 35.088 128.343,34.912 129.045,34.698 129.045 C 34.483 129.045,34.308 129.465,34.308 129.978 C 34.308 130.491,34.045 131.012,33.723 131.135 C 33.321 131.290,33.138 131.919,33.138 133.154 C 33.138 134.229,32.904 135.183,32.554 135.533 C 32.232 135.855,31.969 136.622,31.969 137.237 C 31.969 137.852,31.793 138.464,31.579 138.596 C 31.365 138.729,31.189 139.773,31.189 140.917 C 31.189 142.406,31.023 143.060,30.604 143.221 C 30.156 143.393,30.019 144.131,30.019 146.382 C 30.019 147.996,29.868 149.318,29.683 149.318 C 28.913 149.318,28.070 152.746,28.070 155.875 C 28.070 157.936,27.877 159.402,27.531 159.955 C 26.998 160.809,26.359 171.902,26.779 173.002 C 27.711 175.439,29.111 170.627,29.416 163.938 C 29.533 161.365,29.903 158.382,30.238 157.310 C 30.572 156.238,31.020 153.709,31.233 151.690 C 31.446 149.671,31.820 147.654,32.064 147.207 C 32.308 146.760,32.815 145.078,33.192 143.470 C 34.397 138.322,35.513 134.396,36.088 133.284 C 36.395 132.689,36.648 131.799,36.649 131.306 C 36.650 130.813,37.088 129.546,37.623 128.491 C 38.159 127.437,38.596 126.148,38.596 125.628 C 38.596 125.107,38.958 124.174,39.400 123.553 C 39.842 122.932,40.303 121.812,40.425 121.063 C 40.546 120.313,40.886 119.501,41.181 119.257 C 41.475 119.013,41.715 118.606,41.715 118.352 C 41.715 117.652,47.214 106.392,49.588 102.230 C 50.166 101.218,50.768 100.127,50.928 99.805 C 51.087 99.483,51.974 98.034,52.899 96.585 C 53.824 95.135,54.581 93.802,54.581 93.623 C 54.581 93.443,54.955 92.875,55.412 92.360 C 55.870 91.845,56.860 90.458,57.613 89.279 C 58.927 87.221,59.504 86.447,64.052 80.645 C 70.021 73.029,80.185 62.444,87.396 56.335 C 91.928 52.496,101.077 45.614,101.649 45.614 C 101.847 45.614,102.420 45.175,102.924 44.639 C 103.428 44.103,104.028 43.664,104.259 43.664 C 104.490 43.664,105.643 42.996,106.823 42.181 C 108.002 41.365,110.283 39.956,111.891 39.050 C 113.499 38.143,115.078 37.241,115.400 37.044 C 115.721 36.848,116.453 36.459,117.025 36.180 C 117.598 35.901,119.615 34.909,121.509 33.976 C 129.157 30.207,131.239 29.240,131.708 29.240 C 131.978 29.240,133.023 28.801,134.030 28.265 C 135.037 27.729,136.214 27.290,136.644 27.289 C 137.075 27.288,137.968 26.958,138.629 26.555 C 139.289 26.152,140.605 25.639,141.552 25.416 C 142.500 25.192,144.064 24.738,145.029 24.406 C 148.836 23.096,150.768 22.540,152.748 22.186 C 153.884 21.982,155.550 21.542,156.451 21.207 C 157.352 20.872,159.669 20.372,161.598 20.096 C 163.528 19.820,165.809 19.323,166.667 18.992 C 167.524 18.661,170.082 18.291,172.351 18.170 C 176.333 17.957,179.337 17.183,179.337 16.369 C 179.337 16.157,179.786 15.984,180.335 15.984 C 180.901 15.984,181.228 15.816,181.092 15.595 C 180.856 15.213,176.913 15.030,176.559 15.384 M206.855 15.541 C 206.662 15.855,207.329 15.984,209.139 15.984 C 210.666 15.984,211.696 16.149,211.696 16.394 C 211.696 17.204,214.457 17.931,218.401 18.160 C 220.610 18.288,223.470 18.719,224.756 19.117 C 226.043 19.516,227.931 19.959,228.952 20.103 C 231.098 20.403,231.591 20.892,230.513 21.648 C 229.822 22.132,226.121 29.075,226.121 29.887 C 226.121 30.075,225.710 30.839,225.207 31.586 C 224.704 32.333,224.167 33.456,224.013 34.082 C 223.859 34.709,223.405 35.638,223.005 36.147 C 222.604 36.657,222.165 37.580,222.029 38.198 C 221.893 38.816,221.530 39.531,221.223 39.787 C 220.915 40.042,220.663 40.410,220.663 40.605 C 220.663 41.000,216.988 48.831,215.614 51.365 C 214.369 53.661,209.747 63.433,209.747 63.770 C 209.747 63.993,209.308 64.770,208.772 65.497 C 208.236 66.224,207.797 67.212,207.797 67.694 C 207.797 68.176,207.622 68.678,207.408 68.811 C 207.194 68.943,205.959 71.278,204.664 73.999 C 203.368 76.721,202.139 79.211,201.931 79.532 C 201.724 79.854,201.365 80.556,201.134 81.092 C 200.652 82.211,199.939 83.668,199.322 84.795 C 198.862 85.637,193.924 95.908,192.294 99.415 C 191.746 100.595,191.155 101.823,190.980 102.144 C 189.870 104.195,186.355 111.517,186.355 111.780 C 186.355 111.956,185.916 112.745,185.380 113.534 C 184.844 114.323,184.405 115.294,184.405 115.693 C 184.405 116.092,183.976 117.000,183.451 117.711 C 182.926 118.422,182.387 119.507,182.252 120.122 C 182.117 120.736,181.842 121.340,181.642 121.464 C 181.245 121.709,178.947 126.452,178.947 127.027 C 178.947 127.221,178.623 127.799,178.227 128.310 C 177.831 128.821,177.381 129.752,177.228 130.379 C 177.075 131.005,176.610 131.950,176.194 132.478 C 175.779 133.006,175.439 133.742,175.439 134.113 C 175.439 134.484,175.088 135.234,174.659 135.779 C 174.230 136.324,173.879 136.895,173.879 137.049 C 173.879 137.347,170.158 145.224,169.557 146.199 C 169.203 146.773,168.534 148.165,167.685 150.097 C 167.450 150.634,167.089 151.335,166.884 151.657 C 166.679 151.979,165.262 154.873,163.736 158.090 C 162.210 161.306,160.715 164.376,160.415 164.912 C 160.114 165.448,159.659 166.326,159.404 166.862 C 154.870 176.384,153.481 179.271,153.120 179.922 C 151.952 182.029,151.662 182.704,151.659 183.310 C 151.658 183.673,151.491 184.072,151.288 184.197 C 150.836 184.477,146.589 192.910,146.589 193.528 C 146.589 193.771,146.150 194.616,145.614 195.405 C 145.078 196.194,144.639 197.104,144.639 197.428 C 144.639 197.751,144.201 198.662,143.665 199.452 C 143.129 200.242,142.690 201.205,142.690 201.591 C 142.690 201.977,142.505 202.407,142.279 202.547 C 141.849 202.813,139.181 208.281,139.181 208.896 C 139.181 209.092,138.853 209.670,138.452 210.181 C 138.051 210.693,137.603 211.663,137.456 212.338 C 137.308 213.012,136.847 213.873,136.430 214.250 C 136.013 214.627,135.673 215.323,135.673 215.797 C 135.673 216.271,135.357 217.077,134.971 217.589 C 134.012 218.860,130.214 226.696,130.214 227.403 C 130.214 227.718,129.960 228.186,129.650 228.443 C 129.339 228.701,128.875 229.556,128.618 230.343 C 128.362 231.130,127.826 232.192,127.429 232.704 C 127.031 233.215,126.706 233.800,126.706 234.004 C 126.706 234.311,122.141 243.944,120.742 246.589 C 120.515 247.018,120.121 247.807,119.867 248.343 C 119.613 248.879,119.121 249.844,118.774 250.487 C 118.427 251.131,117.861 252.271,117.517 253.021 C 115.760 256.852,113.744 261.101,113.355 261.793 C 113.114 262.222,112.675 263.099,112.379 263.743 C 112.083 264.386,111.677 265.219,111.476 265.595 C 111.275 265.970,110.948 266.584,110.748 266.959 C 109.427 269.439,106.823 275.056,106.823 275.426 C 106.823 275.671,106.384 276.466,105.848 277.193 C 105.312 277.920,104.873 278.891,104.873 279.353 C 104.873 279.814,104.526 280.505,104.101 280.890 C 103.677 281.274,103.218 282.180,103.082 282.904 C 102.947 283.627,102.684 284.313,102.500 284.427 C 102.149 284.644,99.422 290.201,99.407 290.730 C 99.402 290.897,99.055 291.472,98.635 292.008 C 98.216 292.544,97.869 293.249,97.864 293.574 C 97.860 293.900,97.417 294.811,96.881 295.600 C 96.345 296.389,95.906 297.382,95.906 297.807 C 95.906 298.232,95.677 298.812,95.396 299.095 C 94.902 299.595,90.448 308.503,90.448 308.993 C 90.448 309.127,90.113 309.708,89.702 310.284 C 89.292 310.861,88.833 311.986,88.683 312.786 C 88.533 313.585,88.288 314.314,88.138 314.407 C 87.356 314.891,72.448 299.872,67.258 293.372 C 65.546 291.228,63.791 289.113,63.359 288.672 C 62.927 288.231,62.068 287.091,61.451 286.138 C 60.834 285.185,59.626 283.481,58.767 282.352 C 57.908 281.222,56.921 279.790,56.575 279.168 C 56.229 278.547,55.288 277.055,54.483 275.854 C 53.679 274.652,53.021 273.510,53.021 273.315 C 53.021 273.120,52.768 272.707,52.458 272.397 C 51.922 271.860,50.315 269.037,47.866 264.327 C 47.253 263.148,46.601 261.920,46.418 261.598 C 46.059 260.968,43.885 256.298,43.060 254.386 C 42.782 253.743,42.103 252.234,41.550 251.033 C 40.998 249.833,40.544 248.604,40.541 248.304 C 40.539 248.004,40.100 246.995,39.566 246.062 C 39.033 245.128,38.595 243.988,38.593 243.527 C 38.591 243.067,38.152 241.752,37.618 240.605 C 37.084 239.458,36.647 238.236,36.647 237.891 C 36.647 237.348,36.198 235.850,34.227 229.825 C 34.017 229.181,33.520 227.106,33.123 225.212 C 32.726 223.318,32.213 221.541,31.982 221.263 C 31.751 220.985,31.451 219.289,31.315 217.494 C 31.180 215.699,30.746 213.286,30.353 212.132 C 29.886 210.766,29.556 208.319,29.404 205.115 C 29.091 198.471,27.735 194.018,26.808 196.589 C 26.367 197.815,27.009 208.643,27.535 208.845 C 27.935 208.999,28.070 209.962,28.070 212.668 C 28.070 215.118,28.258 216.645,28.653 217.402 C 28.973 218.016,29.236 218.913,29.237 219.396 C 29.239 219.878,29.415 220.273,29.630 220.273 C 29.849 220.273,30.019 221.364,30.019 222.765 C 30.019 224.621,30.169 225.315,30.604 225.482 C 31.035 225.647,31.189 226.327,31.189 228.058 C 31.189 229.366,31.362 230.409,31.579 230.409 C 31.793 230.409,31.969 231.029,31.969 231.786 C 31.969 232.650,32.187 233.246,32.554 233.387 C 32.961 233.543,33.138 234.179,33.138 235.478 C 33.138 236.777,33.316 237.412,33.723 237.568 C 34.045 237.691,34.308 238.236,34.308 238.779 C 34.308 239.322,34.483 239.766,34.698 239.766 C 34.912 239.766,35.088 240.561,35.088 241.533 C 35.088 242.743,35.272 243.370,35.673 243.524 C 35.994 243.647,36.257 244.168,36.257 244.681 C 36.257 245.194,36.433 245.614,36.647 245.614 C 36.862 245.614,37.037 246.134,37.037 246.770 C 37.037 247.529,37.439 248.338,38.207 249.123 C 39.153 250.091,39.376 250.652,39.376 252.060 C 39.376 253.018,39.552 253.801,39.766 253.801 C 39.981 253.801,40.156 254.221,40.156 254.734 C 40.156 255.247,40.419 255.768,40.741 255.891 C 41.062 256.015,41.326 256.560,41.326 257.103 C 41.326 257.646,41.481 258.090,41.672 258.090 C 41.863 258.090,42.134 258.704,42.274 259.454 C 42.415 260.205,42.698 260.819,42.903 260.819 C 43.107 260.819,43.275 261.082,43.275 261.404 C 43.275 261.725,43.538 261.988,43.860 261.988 C 44.233 261.988,44.444 262.363,44.444 263.024 C 44.444 263.593,44.883 264.634,45.419 265.337 C 45.955 266.040,46.394 266.958,46.394 267.379 C 46.394 267.799,46.657 268.244,46.979 268.367 C 47.300 268.491,47.563 268.948,47.563 269.383 C 47.563 269.819,47.739 270.175,47.953 270.175 C 48.168 270.175,48.343 270.532,48.343 270.967 C 48.343 271.403,48.606 271.860,48.928 271.984 C 49.250 272.107,49.513 272.510,49.513 272.878 C 49.513 273.247,49.951 273.960,50.487 274.464 C 51.023 274.968,51.462 275.788,51.462 276.286 C 51.462 276.832,51.695 277.193,52.047 277.193 C 52.368 277.193,52.632 277.456,52.632 277.778 C 52.632 278.099,52.807 278.363,53.021 278.363 C 53.236 278.363,53.414 278.670,53.418 279.045 C 53.422 279.420,53.860 280.140,54.393 280.645 C 54.925 281.150,55.361 281.842,55.361 282.182 C 55.361 282.522,56.062 283.455,56.920 284.255 C 57.778 285.055,58.480 286.074,58.480 286.519 C 58.480 286.965,58.700 287.329,58.969 287.329 C 59.238 287.329,59.704 287.883,60.003 288.560 C 60.303 289.236,61.486 290.751,62.633 291.925 C 63.779 293.100,64.717 294.290,64.717 294.571 C 64.717 294.852,66.296 296.710,68.226 298.700 C 70.156 300.689,71.735 302.497,71.736 302.718 C 71.736 302.938,72.438 303.779,73.295 304.586 C 74.152 305.392,74.854 306.226,74.854 306.437 C 74.854 306.649,75.048 306.823,75.285 306.823 C 75.522 306.823,76.061 307.261,76.483 307.797 C 76.905 308.333,77.588 308.772,78.001 308.772 C 78.414 308.772,78.752 309.032,78.752 309.349 C 78.752 310.146,83.256 314.686,85.311 315.959 C 87.264 317.171,89.158 317.187,89.824 315.999 C 90.060 315.578,90.648 314.573,91.131 313.765 C 91.613 312.957,92.008 311.942,92.008 311.509 C 92.008 311.069,92.266 310.721,92.593 310.721 C 92.956 310.721,93.177 310.353,93.177 309.747 C 93.177 309.211,93.353 308.772,93.567 308.772 C 93.782 308.772,93.957 308.352,93.957 307.839 C 93.957 307.326,94.220 306.805,94.542 306.682 C 94.868 306.556,95.127 305.977,95.127 305.369 C 95.127 304.748,95.546 303.829,96.101 303.229 C 96.637 302.651,97.076 301.724,97.076 301.168 C 97.076 300.591,97.494 299.770,98.051 299.254 C 98.587 298.758,99.025 297.998,99.025 297.566 C 99.025 297.135,99.288 296.563,99.610 296.296 C 99.932 296.029,100.195 295.557,100.195 295.246 C 100.195 294.935,100.458 294.418,100.780 294.096 C 101.101 293.775,101.365 293.085,101.365 292.565 C 101.365 292.044,101.540 291.618,101.754 291.618 C 101.969 291.618,102.144 291.430,102.144 291.200 C 102.144 290.970,102.407 290.519,102.729 290.198 C 103.051 289.876,103.314 289.099,103.314 288.471 C 103.314 287.843,103.486 287.329,103.696 287.329 C 103.907 287.329,104.189 286.891,104.323 286.355 C 104.458 285.819,104.724 285.380,104.916 285.380 C 105.107 285.380,105.263 284.942,105.263 284.405 C 105.263 283.869,105.426 283.431,105.624 283.431 C 106.081 283.431,107.212 281.195,107.212 280.294 C 107.212 279.921,107.476 279.515,107.797 279.391 C 108.119 279.268,108.382 278.723,108.382 278.180 C 108.382 277.637,108.538 277.193,108.730 277.193 C 108.921 277.193,109.187 276.754,109.322 276.218 C 109.456 275.682,109.739 275.244,109.949 275.244 C 110.159 275.244,110.331 274.824,110.331 274.311 C 110.331 273.798,110.595 273.277,110.916 273.153 C 111.313 273.001,111.501 272.380,111.501 271.225 C 111.501 269.786,111.652 269.452,112.476 269.077 C 113.147 268.771,113.450 268.321,113.450 267.633 C 113.450 267.083,113.889 266.160,114.425 265.582 C 115.050 264.907,115.400 264.075,115.400 263.259 C 115.400 262.389,115.584 261.988,115.984 261.988 C 116.306 261.988,116.569 261.725,116.569 261.404 C 116.569 261.082,116.745 260.819,116.959 260.819 C 117.173 260.819,117.349 260.205,117.349 259.454 C 117.349 258.501,117.525 258.090,117.934 258.090 C 118.255 258.090,118.519 257.827,118.519 257.505 C 118.519 257.183,118.692 256.920,118.904 256.920 C 119.116 256.920,119.401 256.218,119.538 255.361 C 119.676 254.503,119.941 253.801,120.128 253.801 C 120.315 253.801,120.468 253.266,120.468 252.613 C 120.468 251.874,120.811 251.100,121.376 250.566 C 122.438 249.562,123.587 247.363,123.587 246.334 C 123.587 245.938,123.850 245.614,124.172 245.614 C 124.535 245.614,124.756 245.246,124.756 244.639 C 124.756 244.103,124.932 243.665,125.146 243.665 C 125.361 243.665,125.536 243.245,125.536 242.732 C 125.536 242.219,125.799 241.698,126.121 241.574 C 126.442 241.451,126.706 240.994,126.706 240.558 C 126.706 240.122,126.879 239.766,127.091 239.766 C 127.303 239.766,127.588 239.064,127.726 238.207 C 127.863 237.349,128.128 236.647,128.315 236.647 C 128.502 236.647,128.655 236.403,128.655 236.104 C 128.655 235.805,128.918 235.460,129.240 235.337 C 129.561 235.213,129.825 234.766,129.825 234.343 C 129.825 233.920,130.000 233.466,130.214 233.333 C 130.429 233.201,130.604 232.771,130.604 232.377 C 130.604 231.984,130.867 231.561,131.189 231.438 C 131.511 231.315,131.774 230.769,131.774 230.227 C 131.774 229.684,131.946 229.240,132.156 229.240 C 132.367 229.240,132.649 228.801,132.783 228.265 C 132.918 227.729,133.184 227.290,133.376 227.290 C 133.567 227.290,133.723 226.954,133.723 226.542 C 133.723 225.741,134.895 223.282,135.380 223.067 C 135.541 222.995,135.673 222.534,135.673 222.043 C 135.673 221.551,135.936 220.930,136.257 220.663 C 136.579 220.396,136.842 219.779,136.842 219.292 C 136.842 218.805,137.125 218.298,137.471 218.166 C 137.870 218.013,138.026 217.641,137.897 217.149 C 137.766 216.647,137.888 216.374,138.243 216.374 C 138.545 216.374,138.791 216.111,138.791 215.789 C 138.791 215.468,138.964 215.205,139.174 215.205 C 139.384 215.205,139.662 214.722,139.791 214.133 C 140.077 212.830,141.215 210.381,141.618 210.201 C 141.779 210.130,141.910 209.666,141.910 209.171 C 141.910 208.676,142.173 208.170,142.495 208.046 C 142.817 207.923,143.080 207.476,143.080 207.053 C 143.080 206.630,143.255 206.175,143.470 206.043 C 143.684 205.910,143.860 205.374,143.860 204.850 C 143.860 204.327,144.023 203.899,144.223 203.899 C 144.423 203.899,144.710 203.512,144.859 203.040 C 145.009 202.567,145.372 201.941,145.665 201.647 C 145.959 201.354,146.199 200.713,146.199 200.224 C 146.199 199.735,146.637 198.861,147.173 198.282 C 147.755 197.655,148.148 196.767,148.148 196.081 C 148.148 195.449,148.324 194.932,148.538 194.932 C 148.752 194.932,148.928 194.669,148.928 194.347 C 148.928 194.025,149.191 193.762,149.513 193.762 C 149.935 193.762,150.097 193.329,150.097 192.203 C 150.097 191.076,150.260 190.643,150.682 190.643 C 151.078 190.643,151.267 190.248,151.267 189.421 C 151.267 188.618,151.601 187.889,152.242 187.295 C 152.778 186.798,153.216 186.093,153.216 185.728 C 153.216 185.363,153.655 184.489,154.191 183.786 C 154.727 183.083,155.166 182.155,155.166 181.723 C 155.166 181.290,155.604 180.464,156.140 179.885 C 156.688 179.294,157.115 178.365,157.115 177.763 C 157.115 177.170,157.376 176.591,157.700 176.467 C 158.021 176.344,158.285 175.897,158.285 175.474 C 158.285 175.051,158.460 174.596,158.674 174.464 C 158.889 174.331,159.064 173.877,159.064 173.454 C 159.064 173.031,159.327 172.584,159.649 172.461 C 160.005 172.324,160.234 171.734,160.234 170.955 C 160.234 170.153,160.462 169.587,160.843 169.440 C 161.179 169.312,161.344 169.030,161.210 168.814 C 161.077 168.598,161.241 168.421,161.575 168.421 C 161.957 168.421,162.183 168.073,162.183 167.488 C 162.183 166.975,162.446 166.454,162.768 166.331 C 163.090 166.207,163.353 165.662,163.353 165.119 C 163.353 164.577,163.525 164.133,163.735 164.133 C 163.946 164.133,164.228 163.694,164.362 163.158 C 164.497 162.622,164.763 162.183,164.955 162.183 C 165.146 162.183,165.302 161.763,165.302 161.250 C 165.302 160.737,165.565 160.216,165.887 160.093 C 166.209 159.970,166.472 159.522,166.472 159.100 C 166.472 158.677,166.647 158.222,166.862 158.090 C 167.076 157.957,167.251 157.245,167.251 156.507 C 167.251 155.699,167.445 155.162,167.739 155.156 C 168.264 155.146,169.591 152.768,169.591 151.836 C 169.591 151.523,169.766 151.267,169.981 151.267 C 170.195 151.267,170.370 151.025,170.370 150.730 C 170.370 150.435,170.634 149.975,170.955 149.708 C 171.277 149.441,171.540 148.893,171.540 148.490 C 171.540 148.088,171.715 147.758,171.930 147.758 C 172.144 147.758,172.320 147.338,172.320 146.825 C 172.320 146.312,172.583 145.791,172.904 145.668 C 173.246 145.537,173.489 144.953,173.489 144.262 C 173.489 143.612,173.652 143.080,173.851 143.080 C 174.363 143.080,175.439 140.795,175.439 139.706 C 175.439 139.153,175.670 138.791,176.023 138.791 C 176.387 138.791,176.608 138.423,176.608 137.817 C 176.608 137.281,176.784 136.842,176.998 136.842 C 177.212 136.842,177.388 136.422,177.388 135.909 C 177.388 135.396,177.651 134.875,177.973 134.752 C 178.294 134.628,178.558 134.102,178.558 133.582 C 178.558 133.062,178.821 132.536,179.142 132.413 C 179.464 132.289,179.727 131.832,179.727 131.396 C 179.727 130.961,179.903 130.604,180.117 130.604 C 180.331 130.604,180.507 130.166,180.507 129.630 C 180.507 129.094,180.679 128.655,180.889 128.655 C 181.100 128.655,181.382 128.216,181.516 127.680 C 181.651 127.144,181.903 126.706,182.078 126.706 C 182.252 126.706,182.509 126.181,182.650 125.541 C 182.791 124.900,183.068 124.275,183.266 124.153 C 183.464 124.031,183.626 123.164,183.626 122.226 C 183.626 120.756,183.746 120.505,184.503 120.397 C 185.208 120.297,185.404 119.985,185.501 118.811 C 185.570 117.984,185.829 117.349,186.099 117.349 C 186.719 117.349,187.914 115.319,187.914 114.267 C 187.914 113.818,188.090 113.450,188.304 113.450 C 188.519 113.450,188.694 113.206,188.694 112.907 C 188.694 112.609,188.957 112.263,189.279 112.140 C 189.600 112.016,189.864 111.469,189.864 110.923 C 189.864 109.920,190.434 108.657,191.326 107.687 C 191.594 107.395,191.813 106.749,191.813 106.252 C 191.813 105.754,192.076 105.246,192.398 105.122 C 192.733 104.993,192.982 104.411,192.982 103.757 C 192.982 103.048,193.349 102.268,193.950 101.698 C 194.483 101.193,194.921 100.385,194.925 99.903 C 194.929 99.420,195.107 99.025,195.322 99.025 C 195.536 99.025,195.712 98.669,195.712 98.233 C 195.712 97.798,195.975 97.340,196.296 97.217 C 196.618 97.094,196.881 96.592,196.881 96.101 C 196.881 95.611,197.144 95.109,197.466 94.986 C 197.788 94.862,198.051 94.415,198.051 93.992 C 198.051 93.569,198.226 93.115,198.441 92.982 C 198.655 92.850,198.830 92.313,198.830 91.790 C 198.830 91.204,199.055 90.838,199.415 90.838 C 199.807 90.838,200.000 90.446,200.000 89.652 C 200.000 88.926,200.379 88.057,200.975 87.414 C 201.511 86.836,201.949 86.064,201.949 85.700 C 201.949 85.335,202.114 84.935,202.314 84.811 C 202.857 84.475,203.899 82.248,203.899 81.422 C 203.899 81.026,204.162 80.702,204.483 80.702 C 204.847 80.702,205.068 80.334,205.068 79.727 C 205.068 79.191,205.230 78.752,205.427 78.752 C 205.625 78.752,205.901 78.228,206.042 77.587 C 206.183 76.947,206.460 76.322,206.658 76.200 C 206.856 76.077,207.018 75.480,207.018 74.873 C 207.018 74.250,207.273 73.670,207.602 73.543 C 207.924 73.420,208.187 72.962,208.187 72.527 C 208.187 72.091,208.363 71.735,208.577 71.735 C 208.791 71.735,208.967 71.315,208.967 70.802 C 208.967 70.289,209.230 69.768,209.552 69.645 C 209.873 69.521,210.136 69.058,210.136 68.616 C 210.136 68.174,210.400 67.711,210.721 67.587 C 211.043 67.464,211.306 66.943,211.306 66.430 C 211.306 65.917,211.481 65.497,211.696 65.497 C 211.910 65.497,212.086 65.058,212.086 64.522 C 212.086 63.916,212.307 63.548,212.671 63.548 C 213.034 63.548,213.255 63.180,213.255 62.573 C 213.255 62.037,213.431 61.598,213.645 61.598 C 213.860 61.598,214.035 61.260,214.035 60.847 C 214.035 60.433,214.298 59.832,214.620 59.510 C 214.942 59.188,215.205 58.580,215.205 58.159 C 215.205 57.738,215.468 57.292,215.789 57.169 C 216.111 57.046,216.374 56.599,216.374 56.176 C 216.374 55.753,216.550 55.298,216.764 55.166 C 216.979 55.033,217.154 54.603,217.154 54.210 C 217.154 53.816,217.417 53.394,217.739 53.270 C 218.072 53.143,218.324 52.561,218.324 51.921 C 218.324 51.261,218.727 50.361,219.298 49.744 C 219.857 49.142,220.273 48.225,220.273 47.598 C 220.273 46.885,220.613 46.248,221.248 45.771 C 221.927 45.261,222.222 44.666,222.222 43.809 C 222.222 43.075,222.458 42.488,222.807 42.354 C 223.193 42.206,223.392 41.595,223.392 40.558 C 223.392 39.694,223.580 38.986,223.810 38.986 C 224.501 38.986,225.341 37.926,225.341 37.053 C 225.341 36.602,225.604 36.132,225.926 36.008 C 226.248 35.885,226.511 35.364,226.511 34.851 C 226.511 34.338,226.686 33.918,226.901 33.918 C 227.115 33.918,227.290 33.480,227.290 32.943 C 227.290 32.337,227.511 31.969,227.875 31.969 C 228.232 31.969,228.460 31.605,228.460 31.036 C 228.460 30.523,228.723 30.002,229.045 29.879 C 229.366 29.755,229.630 29.392,229.630 29.071 C 229.630 28.750,230.068 27.702,230.604 26.742 C 231.140 25.782,231.579 24.723,231.579 24.389 C 231.579 24.055,231.739 23.782,231.935 23.782 C 232.460 23.782,232.841 20.969,232.537 19.345 C 232.324 18.213,232.096 17.934,231.382 17.934 C 230.893 17.934,230.392 17.671,230.268 17.349 C 230.092 16.890,229.302 16.764,226.601 16.764 C 224.707 16.764,222.987 16.594,222.779 16.385 C 222.571 16.177,220.737 15.904,218.705 15.778 C 208.098 15.123,207.126 15.104,206.855 15.541 M272.016 33.923 C 271.647 34.354,271.345 35.212,271.345 35.830 C 271.345 36.469,271.093 37.050,270.760 37.178 C 270.439 37.301,270.175 37.836,270.175 38.366 C 270.175 38.896,270.000 39.439,269.786 39.571 C 269.571 39.704,269.396 40.153,269.396 40.569 C 269.396 40.985,269.133 41.326,268.811 41.326 C 268.389 41.326,268.226 41.759,268.226 42.885 C 268.226 43.743,268.038 44.444,267.808 44.444 C 267.064 44.444,266.277 45.533,266.277 46.561 C 266.277 47.192,266.060 47.563,265.692 47.563 C 265.328 47.563,265.107 47.932,265.107 48.538 C 265.107 49.074,264.932 49.513,264.717 49.513 C 264.503 49.513,264.327 49.951,264.327 50.487 C 264.327 51.094,264.107 51.462,263.743 51.462 C 263.331 51.462,263.158 51.878,263.158 52.868 C 263.158 53.903,262.901 54.476,262.183 55.040 C 261.534 55.551,261.209 56.194,261.209 56.967 C 261.209 57.703,260.853 58.457,260.235 59.029 C 259.699 59.526,259.143 60.522,258.999 61.244 C 258.855 61.965,258.328 62.996,257.828 63.535 C 257.329 64.074,256.920 64.738,256.920 65.011 C 256.920 65.513,256.770 65.867,255.611 68.091 C 255.259 68.768,254.971 69.670,254.971 70.096 C 254.971 70.523,254.708 70.973,254.386 71.096 C 254.064 71.220,253.801 71.677,253.801 72.113 C 253.801 72.548,253.626 72.904,253.411 72.904 C 253.197 72.904,253.021 73.146,253.021 73.442 C 253.021 73.737,252.758 74.197,252.437 74.464 C 252.115 74.731,251.852 75.366,251.852 75.876 C 251.852 76.386,251.676 76.803,251.462 76.803 C 251.248 76.803,251.072 77.223,251.072 77.736 C 251.072 78.249,250.809 78.770,250.487 78.893 C 250.166 79.017,249.903 79.543,249.903 80.063 C 249.903 80.583,249.639 81.109,249.318 81.233 C 248.996 81.356,248.733 81.813,248.733 82.249 C 248.733 82.685,248.558 83.041,248.343 83.041 C 248.129 83.041,247.953 83.567,247.953 84.211 C 247.953 84.990,247.758 85.380,247.368 85.380 C 247.005 85.380,246.784 85.748,246.784 86.355 C 246.784 86.891,246.608 87.329,246.394 87.329 C 246.179 87.329,246.004 87.749,246.004 88.262 C 246.004 88.776,245.741 89.296,245.419 89.420 C 245.097 89.543,244.834 89.982,244.834 90.394 C 244.834 90.807,244.571 91.246,244.250 91.369 C 243.928 91.492,243.665 91.950,243.665 92.385 C 243.665 92.821,243.489 93.177,243.275 93.177 C 243.060 93.177,242.885 93.597,242.885 94.110 C 242.885 94.623,242.622 95.144,242.300 95.268 C 241.979 95.391,241.715 95.936,241.715 96.479 C 241.715 97.022,241.559 97.466,241.368 97.466 C 241.177 97.466,240.910 97.904,240.776 98.441 C 240.641 98.977,240.359 99.415,240.149 99.415 C 239.938 99.415,239.766 99.752,239.766 100.163 C 239.766 100.965,238.594 103.423,238.109 103.639 C 237.948 103.710,237.817 104.193,237.817 104.711 C 237.817 105.229,237.653 105.653,237.453 105.653 C 237.253 105.653,236.966 106.048,236.816 106.530 C 236.665 107.013,236.434 107.495,236.302 107.602 C 236.034 107.820,235.114 109.726,234.136 112.086 C 233.781 112.943,233.324 113.950,233.120 114.322 C 232.915 114.695,232.749 115.270,232.749 115.601 C 232.749 115.933,232.485 116.305,232.164 116.428 C 231.842 116.552,231.579 117.054,231.579 117.544 C 231.579 118.034,231.316 118.536,230.994 118.660 C 230.673 118.783,230.409 119.328,230.409 119.871 C 230.409 120.414,230.234 120.858,230.019 120.858 C 229.805 120.858,229.630 121.296,229.630 121.832 C 229.630 122.439,229.409 122.807,229.045 122.807 C 228.685 122.807,228.460 123.173,228.460 123.759 C 228.460 124.282,228.285 124.819,228.070 124.951 C 227.856 125.084,227.680 125.533,227.680 125.949 C 227.680 126.365,227.417 126.706,227.096 126.706 C 226.706 126.706,226.511 127.096,226.511 127.875 C 226.511 128.519,226.339 129.045,226.128 129.045 C 225.918 129.045,225.636 129.483,225.501 130.019 C 225.367 130.556,225.100 130.994,224.909 130.994 C 224.718 130.994,224.561 131.433,224.561 131.969 C 224.561 132.575,224.340 132.943,223.977 132.943 C 223.560 132.943,223.392 133.366,223.392 134.410 C 223.392 135.520,223.154 136.056,222.417 136.609 C 221.769 137.096,221.442 137.721,221.442 138.475 C 221.442 139.183,221.077 139.947,220.468 140.512 C 219.837 141.096,219.493 141.836,219.493 142.609 C 219.493 143.411,219.180 144.049,218.541 144.552 C 218.017 144.964,217.472 145.767,217.329 146.335 C 217.186 146.903,216.913 147.368,216.722 147.368 C 216.531 147.368,216.374 147.807,216.374 148.343 C 216.374 148.879,216.218 149.318,216.027 149.318 C 215.835 149.318,215.569 149.756,215.434 150.292 C 215.300 150.828,215.018 151.267,214.807 151.267 C 214.597 151.267,214.425 151.969,214.425 152.827 C 214.425 153.836,214.248 154.386,213.924 154.386 C 213.496 154.386,211.780 156.740,212.006 157.018 C 212.290 157.365,212.012 158.675,211.696 158.480 C 211.481 158.347,211.306 158.493,211.306 158.805 C 211.306 159.116,211.043 159.472,210.721 159.595 C 210.379 159.726,210.136 160.311,210.136 161.001 C 210.136 161.651,209.961 162.183,209.747 162.183 C 209.532 162.183,209.357 162.452,209.357 162.780 C 209.357 163.109,209.094 163.478,208.772 163.602 C 207.981 163.905,207.943 167.251,208.730 167.251 C 209.029 167.251,209.374 167.515,209.498 167.837 C 209.697 168.356,218.613 168.412,287.549 168.325 L 365.375 168.226 365.844 166.862 C 366.101 166.111,366.190 165.058,366.041 164.522 C 365.892 163.986,365.752 162.900,365.731 162.109 C 365.709 161.317,365.517 160.561,365.302 160.429 C 365.085 160.295,364.912 158.491,364.912 156.360 C 364.912 153.433,364.775 152.418,364.327 152.047 C 364.006 151.780,363.743 151.057,363.743 150.440 C 363.743 149.823,363.586 149.318,363.395 149.318 C 363.204 149.318,362.982 148.016,362.902 146.426 C 362.773 143.872,362.631 143.418,361.690 142.546 C 360.761 141.685,360.624 141.263,360.624 139.260 C 360.624 137.215,360.245 135.868,359.039 133.631 C 358.839 133.259,358.674 132.348,358.674 131.607 C 358.674 130.867,358.499 130.152,358.285 130.019 C 358.070 129.887,357.895 129.384,357.895 128.901 C 357.895 128.419,357.637 127.684,357.322 127.267 C 357.008 126.851,356.744 126.135,356.738 125.675 C 356.731 125.216,356.462 124.739,356.140 124.615 C 355.773 124.474,355.556 123.878,355.556 123.014 C 355.556 122.257,355.380 121.637,355.166 121.637 C 354.951 121.637,354.776 121.281,354.776 120.845 C 354.776 120.410,354.513 119.953,354.191 119.829 C 353.866 119.704,353.606 119.125,353.606 118.525 C 353.606 117.930,353.343 117.226,353.021 116.959 C 352.700 116.692,352.437 116.155,352.437 115.765 C 352.437 115.375,352.261 114.947,352.047 114.815 C 351.832 114.682,351.657 114.146,351.657 113.622 C 351.657 113.036,351.432 112.671,351.072 112.671 C 350.712 112.671,350.487 112.305,350.487 111.719 C 350.487 111.196,350.312 110.659,350.097 110.526 C 349.883 110.394,349.708 109.939,349.708 109.516 C 349.708 109.093,349.444 108.646,349.123 108.523 C 348.801 108.400,348.538 107.879,348.538 107.366 C 348.538 106.796,348.310 106.433,347.953 106.433 C 347.589 106.433,347.368 106.065,347.368 105.458 C 347.368 104.922,347.193 104.483,346.979 104.483 C 346.764 104.483,346.589 104.045,346.589 103.509 C 346.589 102.617,346.083 102.306,344.932 102.488 C 344.683 102.527,344.450 100.616,344.593 99.708 C 344.619 99.547,344.376 99.415,344.055 99.415 C 343.727 99.415,343.470 99.067,343.470 98.623 C 343.470 98.188,343.207 97.730,342.885 97.607 C 342.563 97.483,342.300 96.963,342.300 96.450 C 342.300 95.936,342.125 95.517,341.910 95.517 C 341.696 95.517,341.520 95.253,341.520 94.932 C 341.520 94.610,341.257 94.347,340.936 94.347 C 340.614 94.347,340.351 94.084,340.351 93.762 C 340.351 93.441,340.104 93.177,339.803 93.177 C 339.447 93.177,339.326 92.905,339.457 92.402 C 339.585 91.911,339.430 91.539,339.031 91.386 C 338.685 91.253,338.402 90.725,338.402 90.212 C 338.402 89.642,338.174 89.279,337.817 89.279 C 337.495 89.279,337.232 89.080,337.232 88.836 C 337.232 88.593,336.793 87.987,336.257 87.490 C 335.721 86.993,335.283 86.357,335.283 86.077 C 335.283 85.797,334.844 85.094,334.308 84.516 C 333.772 83.938,333.333 83.282,333.333 83.058 C 333.333 82.834,332.632 81.949,331.774 81.092 C 330.916 80.234,330.214 79.365,330.214 79.160 C 330.214 78.955,329.776 78.349,329.240 77.813 C 328.704 77.277,328.265 76.655,328.265 76.431 C 328.265 76.207,328.002 76.023,327.680 76.023 C 327.359 76.023,327.096 75.841,327.096 75.617 C 327.096 75.394,326.917 74.999,326.698 74.740 C 325.810 73.686,324.633 72.250,323.678 71.053 C 323.122 70.356,322.360 69.786,321.984 69.786 C 321.573 69.786,321.252 69.437,321.177 68.908 C 321.088 68.280,320.748 67.996,319.981 67.908 C 319.211 67.819,318.908 67.565,318.908 67.009 C 318.908 66.078,313.420 60.429,312.516 60.429 C 312.172 60.429,311.891 60.148,311.891 59.805 C 311.891 59.086,308.632 55.882,307.551 55.539 C 307.150 55.412,306.823 55.144,306.823 54.944 C 306.823 54.745,306.559 54.581,306.238 54.581 C 305.916 54.581,305.653 54.318,305.653 53.996 C 305.653 53.674,305.511 53.411,305.337 53.411 C 305.163 53.411,304.602 53.022,304.091 52.546 C 303.580 52.070,302.966 51.652,302.726 51.616 C 302.485 51.581,301.367 50.655,300.241 49.558 C 299.115 48.461,297.986 47.561,297.732 47.557 C 297.479 47.554,296.677 47.027,295.951 46.388 C 295.225 45.748,294.392 45.224,294.099 45.224 C 293.807 45.224,293.567 45.049,293.567 44.834 C 293.567 44.620,293.323 44.444,293.024 44.444 C 292.725 44.444,292.380 44.181,292.257 43.860 C 292.133 43.538,291.695 43.275,291.282 43.275 C 290.869 43.275,290.424 42.993,290.292 42.650 C 290.160 42.306,289.813 42.116,289.520 42.228 C 289.222 42.343,288.617 41.929,288.140 41.283 C 287.672 40.651,287.142 40.226,286.961 40.338 C 286.780 40.450,286.531 40.279,286.408 39.959 C 286.285 39.638,285.872 39.373,285.490 39.369 C 285.108 39.366,284.373 38.917,283.856 38.373 C 283.339 37.828,282.421 37.283,281.815 37.162 C 281.209 37.041,280.303 36.568,279.801 36.112 C 279.299 35.656,278.551 35.230,278.139 35.165 C 277.726 35.101,277.002 34.618,276.529 34.093 C 275.417 32.856,273.008 32.765,272.016 33.923 M276.998 37.629 C 277.641 38.097,278.488 38.595,278.881 38.733 C 279.499 38.952,280.451 39.519,284.405 42.024 C 284.834 42.295,285.690 42.819,286.306 43.189 C 286.923 43.558,287.913 44.254,288.507 44.737 C 289.101 45.219,289.753 45.614,289.957 45.614 C 290.160 45.614,290.834 46.050,291.455 46.583 C 292.075 47.116,293.802 48.386,295.294 49.405 C 296.785 50.424,298.391 51.611,298.862 52.042 C 299.333 52.473,300.220 53.216,300.834 53.692 C 302.783 55.205,306.968 58.627,307.628 59.246 C 314.069 65.299,323.688 75.278,325.867 78.168 C 326.514 79.025,327.400 80.166,327.835 80.702 C 330.072 83.453,332.143 86.195,333.505 88.207 C 334.340 89.440,335.157 90.448,335.321 90.448 C 335.486 90.448,335.735 90.811,335.876 91.254 C 336.016 91.697,336.870 93.144,337.774 94.470 C 338.677 95.796,339.979 97.869,340.666 99.077 C 341.353 100.285,342.177 101.491,342.498 101.756 C 342.818 102.022,343.080 102.556,343.080 102.942 C 343.080 103.328,343.519 104.165,344.055 104.802 C 344.591 105.439,345.029 106.208,345.029 106.511 C 345.029 106.813,345.468 107.655,346.004 108.382 C 346.540 109.109,346.979 109.896,346.979 110.132 C 346.979 110.368,347.768 112.132,348.732 114.052 C 349.696 115.973,350.486 117.780,350.486 118.068 C 350.487 118.357,350.816 119.059,351.219 119.628 C 351.621 120.197,352.081 121.277,352.242 122.027 C 352.402 122.778,352.841 123.830,353.216 124.366 C 353.592 124.903,354.030 125.955,354.190 126.706 C 354.349 127.456,354.696 128.509,354.961 129.045 C 355.225 129.581,355.656 130.894,355.917 131.964 C 356.179 133.033,356.555 134.103,356.753 134.341 C 356.951 134.580,357.292 135.719,357.510 136.872 C 357.729 138.025,358.256 139.635,358.681 140.451 C 359.106 141.267,359.454 142.629,359.454 143.478 C 359.454 144.326,359.821 145.944,360.269 147.072 C 360.717 148.200,361.231 150.439,361.410 152.047 C 361.590 153.655,362.109 156.707,362.564 158.829 C 363.020 160.951,363.339 163.407,363.275 164.287 L 363.158 165.887 287.545 165.985 C 240.336 166.047,211.793 165.945,211.563 165.715 C 211.159 165.311,211.252 165.099,217.202 152.964 C 219.320 148.644,221.053 144.940,221.053 144.732 C 221.053 144.525,221.377 143.936,221.773 143.425 C 222.169 142.914,222.622 141.970,222.779 141.328 C 222.936 140.686,223.241 139.948,223.456 139.689 C 223.980 139.057,228.068 130.888,228.069 130.470 C 228.070 130.288,228.409 129.663,228.824 129.081 C 229.239 128.499,229.704 127.519,229.859 126.903 C 230.013 126.287,230.551 125.177,231.054 124.436 C 231.557 123.694,231.969 122.783,231.969 122.410 C 231.969 122.038,232.203 121.538,232.489 121.301 C 232.776 121.063,233.243 120.162,233.528 119.298 C 233.813 118.434,234.281 117.533,234.567 117.296 C 234.853 117.058,235.088 116.568,235.088 116.207 C 235.088 115.846,235.526 114.957,236.062 114.230 C 236.598 113.503,237.037 112.583,237.037 112.184 C 237.037 111.786,237.476 110.814,238.012 110.025 C 238.548 109.236,238.986 108.291,238.986 107.925 C 238.986 107.558,239.162 107.150,239.376 107.018 C 239.770 106.774,244.437 97.389,244.453 96.807 C 244.458 96.633,244.805 96.053,245.224 95.517 C 245.643 94.981,245.990 94.171,245.995 93.717 C 246.000 93.264,246.317 92.474,246.700 91.963 C 247.084 91.452,248.639 88.489,250.156 85.380 C 251.673 82.271,254.606 76.286,256.672 72.081 C 258.738 67.875,260.429 64.259,260.429 64.045 C 260.429 63.832,260.849 63.037,261.363 62.280 C 261.877 61.522,262.417 60.359,262.563 59.695 C 262.709 59.032,262.986 58.391,263.178 58.272 C 263.371 58.153,264.508 56.002,265.706 53.492 C 266.903 50.982,268.079 48.577,268.319 48.148 C 269.461 46.103,269.781 45.371,269.783 44.797 C 269.784 44.455,270.127 43.867,270.543 43.490 C 270.960 43.113,271.418 42.252,271.561 41.578 C 271.704 40.903,272.048 40.088,272.324 39.766 C 272.601 39.444,273.093 38.536,273.419 37.748 C 274.092 36.117,274.888 36.090,276.998 37.629 M186.452 209.940 C 186.184 210.244,185.965 210.676,185.965 210.900 C 185.965 211.123,185.702 211.306,185.380 211.306 C 184.971 211.306,184.795 211.719,184.795 212.683 C 184.795 213.547,184.578 214.143,184.211 214.284 C 183.889 214.407,183.626 214.928,183.626 215.441 C 183.626 215.954,183.462 216.374,183.262 216.374 C 183.062 216.374,182.842 216.857,182.774 217.446 C 182.705 218.049,182.438 218.476,182.164 218.421 C 181.847 218.358,181.676 218.808,181.676 219.705 C 181.676 220.639,181.360 221.428,180.702 222.138 C 180.166 222.716,179.727 223.510,179.727 223.903 C 179.727 224.296,179.508 224.862,179.240 225.161 C 178.001 226.542,177.778 226.918,177.778 227.622 C 177.778 228.037,177.515 228.478,177.193 228.601 C 176.871 228.724,176.608 229.270,176.608 229.812 C 176.608 230.355,176.433 230.799,176.218 230.799 C 176.004 230.799,175.828 231.050,175.828 231.356 C 175.828 231.662,175.597 232.145,175.313 232.428 C 174.700 233.042,174.659 233.184,174.659 234.698 C 174.659 235.341,174.471 235.867,174.241 235.867 C 173.409 235.867,172.710 237.011,172.710 238.374 C 172.710 239.351,172.535 239.766,172.125 239.766 C 171.803 239.766,171.540 240.010,171.540 240.309 C 171.540 240.608,171.277 240.953,170.955 241.077 C 170.613 241.208,170.370 241.792,170.370 242.483 C 170.370 243.133,170.195 243.665,169.981 243.665 C 169.766 243.665,169.591 243.909,169.591 244.208 C 169.591 244.506,169.327 244.852,169.006 244.975 C 168.684 245.099,168.421 245.633,168.421 246.164 C 168.421 246.694,168.246 247.236,168.031 247.368 C 167.817 247.501,167.641 247.880,167.641 248.210 C 167.641 249.072,166.410 251.601,165.811 251.969 C 165.531 252.140,165.302 252.710,165.302 253.236 C 165.302 253.761,165.127 254.191,164.912 254.191 C 164.698 254.191,164.522 254.630,164.522 255.166 C 164.522 255.772,164.301 256.140,163.938 256.140 C 163.574 256.140,163.353 256.509,163.353 257.115 C 163.353 257.651,163.196 258.090,163.005 258.090 C 162.814 258.090,162.548 258.528,162.413 259.064 C 162.278 259.600,161.996 260.039,161.786 260.039 C 161.576 260.039,161.404 260.483,161.404 261.026 C 161.404 261.569,161.130 262.118,160.796 262.246 C 160.462 262.374,160.279 262.714,160.390 263.002 C 160.500 263.290,160.335 263.781,160.022 264.093 C 159.710 264.406,159.454 265.025,159.454 265.469 C 159.454 265.927,159.201 266.277,158.869 266.277 C 158.496 266.277,158.285 266.652,158.285 267.312 C 158.285 267.882,157.846 268.922,157.310 269.625 C 156.774 270.328,156.335 271.247,156.335 271.667 C 156.335 272.087,156.052 272.540,155.706 272.673 C 155.307 272.826,155.151 273.197,155.280 273.689 C 155.411 274.191,155.289 274.464,154.934 274.464 C 154.616 274.464,154.386 274.855,154.386 275.397 C 154.386 275.910,154.123 276.431,153.801 276.554 C 153.480 276.678,153.216 277.060,153.216 277.404 C 153.216 277.747,152.953 278.292,152.632 278.613 C 152.310 278.935,152.047 279.536,152.047 279.950 C 152.047 280.363,151.871 280.702,151.657 280.702 C 151.442 280.702,151.267 281.219,151.267 281.851 C 151.267 282.537,150.874 283.425,150.292 284.052 C 149.756 284.631,149.318 285.327,149.318 285.600 C 149.318 286.135,148.119 288.567,147.696 288.890 C 147.555 288.998,147.129 289.875,146.749 290.839 C 146.370 291.804,145.828 292.733,145.544 292.904 C 145.261 293.076,145.029 293.712,145.029 294.319 C 145.029 294.925,144.758 295.646,144.427 295.921 C 144.095 296.196,143.917 296.663,144.030 296.958 C 144.144 297.254,143.976 297.595,143.658 297.717 C 143.340 297.839,143.080 298.359,143.080 298.872 C 143.080 299.441,142.852 299.805,142.495 299.805 C 142.130 299.805,141.910 300.174,141.910 300.785 C 141.910 301.868,141.202 303.338,140.448 303.821 C 140.180 303.992,139.961 304.502,139.961 304.953 C 139.961 305.405,139.522 306.349,138.986 307.052 C 138.450 307.755,138.012 308.674,138.012 309.094 C 138.012 309.514,137.749 309.959,137.427 310.083 C 137.105 310.206,136.842 310.653,136.842 311.076 C 136.842 311.499,136.667 311.953,136.452 312.086 C 136.238 312.218,136.062 312.755,136.062 313.278 C 136.062 313.864,135.838 314.230,135.478 314.230 C 135.084 314.230,134.893 314.624,134.893 315.436 C 134.893 316.650,133.648 318.704,133.190 318.245 C 133.054 318.110,132.943 318.730,132.943 319.623 C 132.943 320.579,132.761 321.248,132.499 321.248 C 131.857 321.248,131.021 322.476,131.007 323.442 C 131.000 323.898,130.731 324.489,130.409 324.756 C 130.088 325.023,129.825 325.483,129.825 325.779 C 129.825 326.074,129.683 326.316,129.510 326.316 C 129.038 326.316,127.875 329.161,127.875 330.317 C 127.875 330.916,127.498 331.624,126.949 332.056 C 126.440 332.457,125.893 333.375,125.735 334.096 C 125.576 334.817,125.021 335.833,124.501 336.353 C 123.581 337.274,123.535 338.777,124.418 339.116 C 124.604 339.188,124.756 339.407,124.756 339.604 C 124.756 340.369,126.372 341.520,127.444 341.520 C 128.140 341.520,128.926 341.892,129.491 342.488 C 130.085 343.114,130.843 343.459,131.635 343.463 C 132.359 343.467,132.952 343.709,133.084 344.055 C 133.208 344.376,133.655 344.639,134.078 344.639 C 134.501 344.639,134.955 344.815,135.088 345.029 C 135.220 345.244,135.922 345.419,136.647 345.419 C 137.372 345.419,138.074 345.595,138.207 345.810 C 138.620 346.478,141.807 347.758,143.059 347.758 C 143.714 347.758,144.250 347.934,144.250 348.148 C 144.250 348.363,144.678 348.538,145.201 348.538 C 145.725 348.538,146.258 348.708,146.387 348.917 C 146.515 349.125,147.491 349.411,148.554 349.552 C 149.617 349.693,150.487 349.961,150.487 350.148 C 150.487 350.334,151.715 350.487,153.216 350.487 C 154.776 350.487,155.945 350.320,155.945 350.097 C 155.945 349.883,155.638 349.707,155.263 349.705 C 154.888 349.704,154.078 349.441,153.464 349.120 C 152.850 348.800,151.737 348.538,150.990 348.538 C 150.244 348.538,149.080 348.250,148.403 347.898 C 146.056 346.675,145.814 346.589,144.739 346.589 C 144.145 346.589,142.870 346.172,141.907 345.662 C 140.944 345.152,139.542 344.606,138.791 344.447 C 138.041 344.289,137.251 344.035,137.037 343.882 C 136.823 343.729,135.770 343.299,134.698 342.927 C 133.626 342.554,132.282 341.997,131.712 341.689 C 131.141 341.380,130.397 341.235,130.058 341.365 C 129.687 341.507,129.346 341.352,129.201 340.976 C 129.069 340.632,128.724 340.351,128.434 340.351 C 127.855 340.351,125.926 338.430,125.926 337.854 C 125.926 337.197,127.240 334.503,127.560 334.503 C 127.734 334.503,127.875 333.968,127.875 333.315 C 127.875 332.548,128.221 331.806,128.850 331.223 C 129.386 330.726,129.825 330.063,129.825 329.749 C 129.825 329.436,130.965 326.946,132.359 324.216 C 133.752 321.486,134.893 319.012,134.893 318.719 C 134.893 318.425,135.112 317.949,135.380 317.662 C 136.070 316.923,137.232 314.779,137.232 314.247 C 137.232 314.000,137.671 313.153,138.207 312.364 C 138.743 311.576,139.181 310.532,139.181 310.046 C 139.181 309.560,139.313 309.161,139.474 309.159 C 139.874 309.156,141.131 306.895,141.131 306.178 C 141.131 305.859,141.394 305.334,141.715 305.013 C 142.037 304.691,142.300 304.089,142.300 303.676 C 142.300 303.262,142.476 302.924,142.690 302.924 C 142.904 302.924,143.080 302.682,143.080 302.387 C 143.080 302.092,143.343 301.631,143.665 301.365 C 143.986 301.098,144.250 300.450,144.250 299.924 C 144.250 299.399,144.469 298.725,144.737 298.426 C 145.968 297.053,146.199 296.673,146.199 296.013 C 146.199 295.625,146.637 294.662,147.173 293.873 C 147.710 293.084,148.148 292.269,148.148 292.062 C 148.148 291.515,150.600 286.768,150.961 286.615 C 151.129 286.543,151.267 286.132,151.267 285.700 C 151.267 284.822,152.437 282.651,152.911 282.651 C 153.079 282.651,153.216 282.225,153.216 281.704 C 153.216 281.184,153.442 280.526,153.718 280.242 C 154.382 279.562,155.556 277.036,155.556 276.289 C 155.556 275.964,155.687 275.640,155.848 275.569 C 156.309 275.364,157.505 273.045,157.505 272.357 C 157.505 272.015,157.666 271.735,157.864 271.735 C 158.061 271.735,158.338 271.209,158.480 270.565 C 158.621 269.922,158.898 269.396,159.095 269.396 C 159.293 269.396,159.454 269.154,159.454 268.859 C 159.454 268.563,159.717 268.103,160.039 267.836 C 160.361 267.569,160.624 266.926,160.624 266.407 C 160.624 265.888,161.062 264.990,161.598 264.412 C 162.135 263.834,162.573 263.066,162.573 262.706 C 162.573 261.933,163.809 259.655,164.230 259.652 C 164.391 259.650,164.522 259.123,164.522 258.480 C 164.522 257.836,164.669 257.310,164.849 257.310 C 165.029 257.310,165.583 256.345,166.082 255.166 C 166.580 253.986,167.135 253.021,167.315 253.021 C 167.494 253.021,167.641 252.537,167.641 251.945 C 167.641 251.338,168.066 250.412,168.616 249.818 C 169.152 249.240,169.591 248.397,169.591 247.944 C 169.591 247.492,170.029 246.546,170.565 245.844 C 171.101 245.141,171.540 244.366,171.540 244.121 C 171.540 243.876,172.241 242.314,173.099 240.649 C 173.956 238.984,174.658 237.315,174.658 236.940 C 174.658 236.564,174.821 236.257,175.020 236.257 C 175.411 236.257,176.608 234.075,176.608 233.364 C 176.608 233.125,177.038 232.297,177.563 231.525 C 178.088 230.752,178.641 229.615,178.792 228.997 C 178.944 228.380,179.176 227.788,179.309 227.680 C 179.929 227.179,180.897 225.287,180.897 224.575 C 180.897 224.139,181.039 223.782,181.213 223.782 C 181.388 223.782,181.907 222.919,182.367 221.865 C 182.827 220.811,183.387 219.836,183.610 219.698 C 183.833 219.560,184.016 219.006,184.016 218.468 C 184.016 217.929,184.235 217.244,184.503 216.945 C 185.760 215.543,185.965 215.176,185.965 214.326 C 185.965 213.784,186.565 212.828,187.443 211.970 L 188.922 210.526 275.604 210.526 L 362.287 210.526 363.015 211.366 C 363.881 212.364,363.922 213.132,363.214 215.099 C 362.076 218.261,361.793 219.411,361.791 220.885 C 361.790 221.728,361.526 222.920,361.206 223.534 C 360.429 225.025,360.430 227.290,361.209 227.290 C 361.565 227.290,361.793 226.927,361.793 226.358 C 361.793 225.844,362.033 225.333,362.326 225.220 C 362.683 225.083,362.876 224.266,362.911 222.742 C 362.940 221.491,363.139 220.409,363.353 220.338 C 363.567 220.266,363.743 219.540,363.743 218.723 C 363.743 217.762,363.949 217.158,364.327 217.013 C 364.791 216.835,364.912 216.016,364.912 213.073 L 364.912 209.357 275.926 209.372 C 199.564 209.384,186.870 209.465,186.452 209.940 M359.625 229.428 C 359.482 230.187,359.210 230.904,359.020 231.021 C 358.830 231.139,358.674 232.190,358.674 233.356 C 358.674 234.523,358.507 235.478,358.303 235.478 C 357.777 235.478,356.828 237.713,356.524 239.669 C 356.383 240.580,356.135 241.326,355.974 241.326 C 355.814 241.326,355.364 242.334,354.976 243.567 C 354.587 244.800,353.857 246.658,353.353 247.697 C 352.849 248.735,352.437 249.884,352.437 250.250 C 352.437 250.617,352.255 251.098,352.033 251.320 C 351.810 251.543,351.537 252.236,351.425 252.860 C 351.313 253.485,351.056 254.055,350.854 254.126 C 350.652 254.198,350.487 254.517,350.487 254.836 C 350.487 255.155,350.224 255.679,349.903 256.001 C 349.581 256.323,349.318 256.970,349.318 257.439 C 349.318 257.909,348.879 258.766,348.343 259.344 C 347.807 259.922,347.368 260.713,347.368 261.101 C 347.368 261.489,346.930 262.453,346.394 263.242 C 345.858 264.031,345.419 264.938,345.419 265.258 C 345.419 265.579,345.254 265.943,345.052 266.068 C 344.850 266.192,344.293 267.080,343.813 268.040 C 343.334 269.000,342.797 269.786,342.621 269.786 C 342.445 269.786,342.297 270.180,342.293 270.663 C 342.290 271.145,341.851 271.953,341.319 272.458 C 340.786 272.963,340.351 273.678,340.351 274.047 C 340.351 274.416,339.912 275.130,339.376 275.634 C 338.840 276.137,338.402 276.747,338.402 276.989 C 338.402 277.470,336.064 280.817,335.581 281.027 C 335.417 281.098,335.283 281.378,335.283 281.648 C 335.283 281.919,334.843 282.650,334.306 283.273 C 333.768 283.896,333.239 284.686,333.129 285.028 C 333.019 285.371,332.136 286.511,331.167 287.562 C 330.199 288.614,328.769 290.395,327.991 291.520 C 327.213 292.646,326.430 293.567,326.251 293.567 C 326.072 293.567,325.926 293.755,325.926 293.985 C 325.926 294.525,324.934 295.517,324.394 295.517 C 324.165 295.517,323.977 295.773,323.977 296.087 C 323.977 296.945,306.935 313.840,306.069 313.840 C 305.840 313.840,305.653 314.016,305.653 314.231 C 305.653 314.446,304.557 315.426,303.216 316.410 C 301.876 317.393,300.721 318.358,300.650 318.553 C 300.578 318.749,300.353 318.908,300.149 318.908 C 299.946 318.908,299.299 319.391,298.713 319.981 C 297.006 321.698,292.272 325.146,291.621 325.146 C 291.405 325.146,291.228 325.310,291.228 325.510 C 291.228 325.710,290.921 325.972,290.546 326.092 C 290.171 326.213,289.354 326.751,288.731 327.288 C 288.108 327.825,287.442 328.265,287.252 328.265 C 287.061 328.265,286.433 328.704,285.854 329.240 C 285.276 329.776,284.487 330.214,284.100 330.214 C 283.713 330.214,282.924 330.653,282.346 331.189 C 281.768 331.725,281.043 332.164,280.736 332.164 C 280.429 332.164,279.901 332.411,279.563 332.713 C 278.829 333.368,275.271 335.283,274.788 335.283 C 274.601 335.283,273.754 335.721,272.904 336.257 C 272.055 336.793,271.108 337.232,270.800 337.232 C 270.098 337.232,267.842 338.494,267.839 338.889 C 267.837 339.050,267.491 339.181,267.069 339.181 C 266.123 339.181,263.158 340.689,263.158 341.170 C 263.158 341.798,266.668 341.580,266.916 340.936 C 267.039 340.614,267.560 340.351,268.073 340.351 C 268.586 340.351,269.006 340.194,269.006 340.003 C 269.006 339.812,269.444 339.546,269.981 339.411 C 270.517 339.277,270.955 338.994,270.955 338.784 C 270.955 338.574,271.481 338.402,272.125 338.402 C 272.768 338.402,273.294 338.260,273.294 338.087 C 273.294 337.742,276.012 336.452,276.739 336.452 C 276.989 336.452,277.193 336.189,277.193 335.867 C 277.193 335.504,277.561 335.283,278.168 335.283 C 278.704 335.283,279.142 335.107,279.142 334.893 C 279.142 334.678,279.481 334.503,279.894 334.503 C 280.308 334.503,280.885 334.284,281.178 334.016 C 281.954 333.304,283.137 332.564,283.918 332.302 C 284.293 332.176,284.600 331.918,284.600 331.728 C 284.600 331.539,284.957 331.384,285.392 331.384 C 285.828 331.384,286.285 331.121,286.409 330.799 C 286.532 330.478,286.934 330.214,287.301 330.214 C 288.081 330.214,290.448 328.209,290.448 327.548 C 290.448 327.299,290.823 327.096,291.281 327.096 C 291.739 327.096,292.520 326.657,293.017 326.121 C 293.513 325.585,294.279 325.146,294.718 325.146 C 295.168 325.146,295.517 324.891,295.517 324.561 C 295.517 324.240,295.780 323.977,296.101 323.977 C 296.423 323.977,296.686 323.822,296.686 323.632 C 296.686 323.443,296.993 323.185,297.368 323.059 C 298.566 322.657,300.585 321.170,300.585 320.691 C 300.585 320.329,302.113 318.908,302.502 318.908 C 302.698 318.908,302.921 318.723,302.996 318.497 C 303.071 318.271,303.481 318.036,303.906 317.975 C 304.352 317.910,304.731 317.508,304.803 317.021 C 304.872 316.556,305.210 316.179,305.560 316.179 C 305.908 316.179,306.847 315.478,307.647 314.620 C 308.446 313.762,309.290 313.060,309.521 313.060 C 309.752 313.060,309.942 312.885,309.942 312.671 C 309.942 312.126,311.386 310.736,311.663 311.014 C 311.788 311.139,311.891 311.032,311.891 310.777 C 311.891 310.521,312.329 310.145,312.865 309.942 C 313.402 309.738,313.840 309.391,313.840 309.171 C 313.840 308.952,314.065 308.772,314.341 308.772 C 314.616 308.772,315.154 308.243,315.537 307.595 C 315.919 306.948,316.395 306.520,316.595 306.644 C 316.795 306.767,316.959 306.595,316.959 306.261 C 316.959 305.927,317.147 305.653,317.377 305.653 C 317.944 305.653,318.928 304.633,318.639 304.344 C 318.511 304.216,318.704 303.998,319.067 303.859 C 319.743 303.599,322.027 301.469,322.027 301.098 C 322.027 300.985,322.466 300.547,323.002 300.125 C 323.538 299.704,323.977 299.103,323.977 298.790 C 323.977 298.477,324.240 298.120,324.561 297.997 C 324.883 297.873,325.146 297.528,325.146 297.229 C 325.146 296.931,325.409 296.686,325.731 296.686 C 326.053 296.686,326.316 296.465,326.316 296.194 C 326.316 295.923,326.754 295.372,327.290 294.970 C 327.827 294.567,328.265 293.915,328.265 293.520 C 328.265 293.080,328.642 292.708,329.240 292.558 C 329.940 292.382,330.214 292.050,330.214 291.381 C 330.214 290.812,330.442 290.448,330.799 290.448 C 331.121 290.448,331.384 290.175,331.384 289.841 C 331.384 289.506,331.559 289.341,331.774 289.474 C 331.988 289.606,332.164 289.460,332.164 289.149 C 332.164 288.837,332.427 288.481,332.749 288.358 C 333.070 288.235,333.333 287.841,333.333 287.484 C 333.333 287.126,333.772 286.428,334.308 285.931 C 334.844 285.434,335.283 284.668,335.283 284.229 C 335.283 283.779,335.538 283.431,335.867 283.431 C 336.189 283.431,336.452 283.168,336.452 282.846 C 336.452 282.524,336.628 282.261,336.842 282.261 C 337.057 282.261,337.232 281.937,337.232 281.540 C 337.232 281.143,337.754 280.418,338.393 279.929 C 339.031 279.440,339.459 278.887,339.344 278.701 C 339.229 278.515,339.409 278.363,339.743 278.363 C 340.124 278.363,340.351 278.015,340.351 277.430 C 340.351 276.917,340.614 276.396,340.936 276.272 C 341.257 276.149,341.520 275.691,341.520 275.256 C 341.520 274.820,341.675 274.464,341.865 274.464 C 342.054 274.464,342.312 274.157,342.438 273.782 C 342.751 272.850,343.552 271.648,344.212 271.121 C 344.512 270.880,344.647 270.502,344.510 270.281 C 344.373 270.059,344.782 269.287,345.419 268.565 C 346.055 267.843,346.579 266.882,346.582 266.431 C 346.586 265.980,347.027 265.138,347.563 264.559 C 348.099 263.981,348.538 263.176,348.538 262.771 C 348.538 262.366,348.713 261.926,348.928 261.793 C 349.142 261.661,349.318 261.231,349.318 260.837 C 349.318 260.444,349.581 260.021,349.903 259.898 C 350.224 259.775,350.487 259.305,350.487 258.854 C 350.487 258.403,350.750 257.771,351.072 257.449 C 351.394 257.128,351.657 256.449,351.657 255.941 C 351.657 255.432,351.832 254.908,352.047 254.776 C 352.261 254.643,352.437 254.213,352.437 253.820 C 352.437 253.427,352.661 253.019,352.935 252.914 C 353.209 252.808,353.477 252.147,353.531 251.445 C 353.584 250.742,353.913 249.959,354.262 249.704 C 354.610 249.450,354.769 249.038,354.616 248.789 C 354.460 248.537,354.606 248.234,354.946 248.104 C 355.296 247.969,355.556 247.410,355.556 246.790 C 355.556 246.196,355.819 245.491,356.140 245.224 C 356.462 244.957,356.725 244.234,356.725 243.617 C 356.725 243.000,356.893 242.495,357.097 242.495 C 357.302 242.495,357.578 241.837,357.710 241.033 C 357.843 240.229,358.102 239.220,358.286 238.791 C 358.470 238.363,358.731 237.178,358.867 236.160 C 359.002 235.141,359.277 234.308,359.478 234.308 C 359.679 234.308,359.844 233.869,359.844 233.333 C 359.844 232.797,360.019 232.359,360.234 232.359 C 360.731 232.359,360.749 228.583,360.254 228.277 C 360.050 228.151,359.767 228.669,359.625 229.428 M260.621 341.688 C 260.194 342.011,259.624 342.281,259.355 342.288 C 259.086 342.295,257.947 342.744,256.823 343.285 C 255.700 343.827,254.118 344.377,253.308 344.506 C 252.498 344.636,251.740 344.894,251.625 345.080 C 251.510 345.267,251.075 345.419,250.659 345.419 C 250.243 345.419,249.903 345.584,249.903 345.785 C 249.903 345.986,249.069 346.264,248.051 346.403 C 246.091 346.669,243.855 347.525,243.463 348.159 C 243.334 348.367,242.382 348.538,241.347 348.538 C 240.312 348.538,238.963 348.800,238.349 349.120 C 237.734 349.441,236.925 349.704,236.550 349.705 C 236.174 349.707,235.867 349.883,235.867 350.097 C 235.867 350.312,235.113 350.487,234.191 350.487 C 233.269 350.487,232.336 350.666,232.117 350.885 C 231.898 351.104,230.503 351.374,229.017 351.485 C 226.301 351.687,223.523 352.143,220.273 352.920 C 216.133 353.910,190.561 355.015,185.986 354.401 C 183.937 354.126,180.328 353.783,177.965 353.637 C 175.602 353.492,173.443 353.234,173.167 353.063 C 172.504 352.654,169.079 352.105,164.585 351.689 C 162.582 351.504,160.748 351.158,160.511 350.920 C 159.824 350.234,156.335 350.361,156.335 351.072 C 156.335 351.394,156.665 351.657,157.067 351.657 C 157.470 351.657,158.018 351.920,158.285 352.242 C 158.649 352.681,159.628 352.827,162.208 352.827 C 164.099 352.827,165.754 353.002,165.887 353.216 C 166.019 353.431,166.825 353.606,167.677 353.606 C 168.694 353.606,169.302 353.807,169.450 354.191 C 169.631 354.663,170.525 354.776,174.093 354.776 C 176.618 354.776,178.615 354.943,178.752 355.166 C 178.885 355.380,180.014 355.556,181.262 355.556 C 182.803 355.556,183.686 355.743,184.016 356.140 C 184.727 356.998,202.205 357.009,203.337 356.153 C 203.884 355.739,205.191 355.577,208.057 355.568 C 210.268 355.561,212.078 355.388,212.151 355.176 C 212.226 354.957,214.563 354.777,217.667 354.751 C 221.914 354.716,223.098 354.590,223.264 354.156 C 223.385 353.842,224.008 353.606,224.720 353.606 C 225.405 353.606,226.132 353.439,226.337 353.234 C 226.542 353.029,228.364 352.799,230.387 352.723 C 232.771 352.633,234.118 352.421,234.219 352.120 C 234.303 351.865,234.688 351.657,235.072 351.657 C 235.457 351.657,235.990 351.394,236.257 351.072 C 236.588 350.674,237.473 350.487,239.034 350.487 C 240.294 350.487,241.326 350.334,241.326 350.147 C 241.326 349.960,242.239 349.719,243.356 349.612 C 244.473 349.504,245.452 349.219,245.533 348.977 C 245.613 348.736,246.103 348.538,246.621 348.538 C 247.139 348.538,247.563 348.385,247.563 348.198 C 247.563 348.011,248.477 347.770,249.594 347.662 C 250.710 347.555,251.690 347.270,251.770 347.028 C 251.851 346.786,252.341 346.589,252.859 346.589 C 253.437 346.589,253.801 346.362,253.801 346.004 C 253.801 345.582,254.234 345.419,255.361 345.419 C 256.218 345.419,256.920 345.263,256.920 345.072 C 256.920 344.880,257.359 344.614,257.895 344.479 C 258.431 344.345,258.869 344.063,258.869 343.852 C 258.869 343.642,259.582 343.470,260.452 343.470 C 261.326 343.470,261.934 343.308,261.811 343.108 C 261.688 342.909,261.950 342.631,262.394 342.490 C 262.838 342.349,263.134 342.030,263.051 341.780 C 262.822 341.083,261.488 341.033,260.621 341.688 " stroke="none" fill="#cede7a" fill-rule="evenodd"></path><path id="path4" d="M187.409 212.005 C 186.609 212.823,185.965 213.875,185.965 214.360 C 185.965 215.179,185.757 215.547,184.503 216.945 C 184.235 217.244,184.016 217.929,184.016 218.468 C 184.016 219.006,183.833 219.560,183.610 219.698 C 183.387 219.836,182.827 220.811,182.367 221.865 C 181.907 222.919,181.388 223.782,181.213 223.782 C 181.039 223.782,180.897 224.139,180.897 224.575 C 180.897 225.287,179.929 227.179,179.309 227.680 C 179.176 227.788,178.944 228.380,178.792 228.997 C 178.641 229.615,178.088 230.752,177.563 231.525 C 177.038 232.297,176.608 233.125,176.608 233.364 C 176.608 234.075,175.411 236.257,175.020 236.257 C 174.821 236.257,174.658 236.564,174.658 236.940 C 174.658 237.315,173.956 238.984,173.099 240.649 C 172.241 242.314,171.540 243.876,171.540 244.121 C 171.540 244.366,171.101 245.141,170.565 245.844 C 170.029 246.546,169.591 247.492,169.591 247.944 C 169.591 248.397,169.152 249.240,168.616 249.818 C 168.066 250.412,167.641 251.338,167.641 251.945 C 167.641 252.537,167.494 253.021,167.315 253.021 C 167.135 253.021,166.580 253.986,166.082 255.166 C 165.583 256.345,165.029 257.310,164.849 257.310 C 164.669 257.310,164.522 257.836,164.522 258.480 C 164.522 259.123,164.391 259.650,164.230 259.652 C 163.809 259.655,162.573 261.933,162.573 262.706 C 162.573 263.066,162.135 263.834,161.598 264.412 C 161.062 264.990,160.624 265.888,160.624 266.407 C 160.624 266.926,160.361 267.569,160.039 267.836 C 159.717 268.103,159.454 268.563,159.454 268.859 C 159.454 269.154,159.293 269.396,159.095 269.396 C 158.898 269.396,158.621 269.922,158.480 270.565 C 158.338 271.209,158.061 271.735,157.864 271.735 C 157.666 271.735,157.505 272.015,157.505 272.357 C 157.505 273.045,156.309 275.364,155.848 275.569 C 155.687 275.640,155.556 275.964,155.556 276.289 C 155.556 277.036,154.382 279.562,153.718 280.242 C 153.442 280.526,153.216 281.184,153.216 281.704 C 153.216 282.225,153.079 282.651,152.911 282.651 C 152.437 282.651,151.267 284.822,151.267 285.700 C 151.267 286.132,151.129 286.543,150.961 286.615 C 150.600 286.768,148.148 291.515,148.148 292.062 C 148.148 292.269,147.710 293.084,147.173 293.873 C 146.637 294.662,146.199 295.630,146.199 296.025 C 146.199 296.419,145.980 296.986,145.712 297.285 C 144.451 298.691,144.250 299.056,144.250 299.936 C 144.250 300.455,143.986 301.098,143.665 301.365 C 143.343 301.631,143.080 302.092,143.080 302.387 C 143.080 302.682,142.904 302.924,142.690 302.924 C 142.476 302.924,142.300 303.262,142.300 303.676 C 142.300 304.089,142.037 304.691,141.715 305.013 C 141.394 305.334,141.131 305.859,141.131 306.178 C 141.131 306.895,139.874 309.156,139.474 309.159 C 139.313 309.161,139.181 309.560,139.181 310.046 C 139.181 310.532,138.743 311.576,138.207 312.364 C 137.671 313.153,137.232 314.000,137.232 314.247 C 137.232 314.779,136.070 316.923,135.380 317.662 C 135.112 317.949,134.893 318.425,134.893 318.719 C 134.893 319.012,133.752 321.486,132.359 324.216 C 130.965 326.946,129.825 329.436,129.825 329.749 C 129.825 330.063,129.386 330.726,128.850 331.223 C 128.221 331.806,127.875 332.548,127.875 333.315 C 127.875 333.968,127.734 334.503,127.560 334.503 C 127.240 334.503,125.926 337.197,125.926 337.854 C 125.926 338.430,127.855 340.351,128.434 340.351 C 128.724 340.351,129.069 340.632,129.201 340.976 C 129.346 341.352,129.687 341.507,130.058 341.365 C 130.397 341.235,131.141 341.380,131.712 341.689 C 132.282 341.997,133.626 342.554,134.698 342.927 C 135.770 343.299,136.823 343.729,137.037 343.882 C 137.251 344.035,138.041 344.289,138.791 344.447 C 139.542 344.606,140.944 345.152,141.907 345.662 C 142.870 346.172,144.145 346.589,144.739 346.589 C 145.814 346.589,146.056 346.675,148.403 347.898 C 149.080 348.250,150.244 348.538,150.990 348.538 C 151.737 348.538,152.850 348.800,153.464 349.120 C 154.078 349.441,154.888 349.704,155.263 349.705 C 155.638 349.707,155.945 349.883,155.945 350.097 C 155.945 350.312,156.875 350.487,158.012 350.487 C 159.148 350.487,160.273 350.682,160.511 350.920 C 160.748 351.158,162.582 351.504,164.585 351.689 C 169.079 352.105,172.504 352.654,173.167 353.063 C 173.443 353.234,175.602 353.492,177.965 353.637 C 180.328 353.783,183.937 354.126,185.986 354.401 C 190.561 355.015,216.133 353.910,220.273 352.920 C 223.523 352.143,226.301 351.687,229.017 351.485 C 230.503 351.374,231.898 351.104,232.117 350.885 C 232.336 350.666,233.269 350.487,234.191 350.487 C 235.113 350.487,235.867 350.312,235.867 350.097 C 235.867 349.883,236.174 349.707,236.550 349.705 C 236.925 349.704,237.734 349.441,238.349 349.120 C 238.963 348.800,240.312 348.538,241.347 348.538 C 242.382 348.538,243.334 348.367,243.463 348.159 C 243.855 347.525,246.091 346.669,248.051 346.403 C 249.069 346.264,249.903 345.986,249.903 345.785 C 249.903 345.584,250.243 345.419,250.659 345.419 C 251.075 345.419,251.510 345.267,251.625 345.080 C 251.740 344.894,252.498 344.636,253.308 344.506 C 254.118 344.377,255.700 343.827,256.823 343.285 C 257.947 342.744,259.048 342.300,259.271 342.300 C 259.494 342.300,260.109 342.017,260.638 341.670 C 261.167 341.324,261.950 341.132,262.379 341.244 C 262.807 341.356,263.158 341.306,263.158 341.133 C 263.158 340.681,266.161 339.181,267.069 339.181 C 267.491 339.181,267.837 339.050,267.839 338.889 C 267.842 338.494,270.098 337.232,270.800 337.232 C 271.108 337.232,272.055 336.793,272.904 336.257 C 273.754 335.721,274.601 335.283,274.788 335.283 C 275.271 335.283,278.829 333.368,279.563 332.713 C 279.901 332.411,280.429 332.164,280.736 332.164 C 281.043 332.164,281.768 331.725,282.346 331.189 C 282.924 330.653,283.713 330.214,284.100 330.214 C 284.487 330.214,285.276 329.776,285.854 329.240 C 286.433 328.704,287.061 328.265,287.252 328.265 C 287.442 328.265,288.108 327.825,288.731 327.288 C 289.354 326.751,290.171 326.213,290.546 326.092 C 290.921 325.972,291.228 325.710,291.228 325.510 C 291.228 325.310,291.405 325.146,291.621 325.146 C 292.272 325.146,297.006 321.698,298.713 319.981 C 299.299 319.391,299.946 318.908,300.149 318.908 C 300.353 318.908,300.578 318.749,300.650 318.553 C 300.721 318.358,301.876 317.393,303.216 316.410 C 304.557 315.426,305.653 314.446,305.653 314.231 C 305.653 314.016,305.840 313.840,306.069 313.840 C 306.935 313.840,323.977 296.945,323.977 296.087 C 323.977 295.773,324.165 295.517,324.394 295.517 C 324.934 295.517,325.926 294.525,325.926 293.985 C 325.926 293.755,326.072 293.567,326.251 293.567 C 326.430 293.567,327.213 292.646,327.991 291.520 C 328.769 290.395,330.199 288.614,331.167 287.562 C 332.136 286.511,333.019 285.371,333.129 285.028 C 333.239 284.686,333.768 283.896,334.306 283.273 C 334.843 282.650,335.283 281.919,335.283 281.648 C 335.283 281.378,335.417 281.098,335.581 281.027 C 336.064 280.817,338.402 277.470,338.402 276.989 C 338.402 276.747,338.840 276.137,339.376 275.634 C 339.912 275.130,340.351 274.416,340.351 274.047 C 340.351 273.678,340.786 272.963,341.319 272.458 C 341.851 271.953,342.290 271.145,342.293 270.663 C 342.297 270.180,342.445 269.786,342.621 269.786 C 342.797 269.786,343.334 269.000,343.813 268.040 C 344.293 267.080,344.850 266.192,345.052 266.068 C 345.254 265.943,345.419 265.579,345.419 265.258 C 345.419 264.938,345.858 264.031,346.394 263.242 C 346.930 262.453,347.368 261.489,347.368 261.101 C 347.368 260.713,347.807 259.922,348.343 259.344 C 348.879 258.766,349.318 257.909,349.318 257.439 C 349.318 256.970,349.581 256.323,349.903 256.001 C 350.224 255.679,350.487 255.155,350.487 254.836 C 350.487 254.517,350.652 254.198,350.854 254.126 C 351.056 254.055,351.313 253.485,351.425 252.860 C 351.537 252.236,351.810 251.543,352.033 251.320 C 352.255 251.098,352.437 250.617,352.437 250.250 C 352.437 249.884,352.849 248.735,353.353 247.697 C 353.857 246.658,354.587 244.800,354.976 243.567 C 355.364 242.334,355.814 241.326,355.974 241.326 C 356.135 241.326,356.383 240.580,356.524 239.669 C 356.828 237.713,357.777 235.478,358.303 235.478 C 358.507 235.478,358.674 234.523,358.674 233.356 C 358.674 232.190,358.830 231.139,359.020 231.021 C 359.210 230.904,359.482 230.187,359.625 229.428 C 359.767 228.669,360.050 228.151,360.254 228.277 C 360.468 228.410,360.624 227.696,360.624 226.578 C 360.624 225.518,360.886 224.148,361.206 223.534 C 361.526 222.920,361.790 221.728,361.791 220.885 C 361.793 219.411,362.076 218.261,363.214 215.099 C 363.922 213.132,363.881 212.364,363.015 211.366 L 362.287 210.526 275.569 210.526 L 188.852 210.526 187.409 212.005 M361.570 212.429 C 361.985 213.101,361.075 220.193,360.408 221.483 C 360.038 222.199,359.603 223.982,359.443 225.447 C 359.269 227.032,358.887 228.400,358.499 228.828 C 358.141 229.224,357.688 230.663,357.493 232.026 C 357.298 233.388,356.783 235.198,356.347 236.047 C 355.912 236.897,355.550 237.862,355.542 238.192 C 355.535 238.522,355.190 239.493,354.776 240.351 C 354.362 241.209,354.016 242.261,354.008 242.690 C 354.000 243.119,353.555 244.333,353.020 245.388 C 352.485 246.443,352.047 247.643,352.047 248.055 C 352.047 248.468,351.710 249.232,351.299 249.755 C 350.888 250.278,350.436 251.392,350.294 252.231 C 350.152 253.070,349.796 253.956,349.502 254.200 C 349.208 254.444,348.769 255.244,348.527 255.979 C 348.284 256.714,347.398 258.566,346.558 260.096 C 345.717 261.625,345.029 263.081,345.029 263.331 C 345.029 263.581,344.591 264.381,344.055 265.107 C 343.519 265.834,343.080 266.724,343.080 267.085 C 343.080 267.445,342.802 267.971,342.463 268.253 C 342.124 268.534,341.554 269.316,341.196 269.991 C 340.838 270.665,340.116 272.035,339.591 273.036 C 339.066 274.036,338.496 274.854,338.324 274.854 C 338.152 274.854,338.012 275.103,338.012 275.409 C 338.012 275.714,337.573 276.485,337.037 277.122 C 336.501 277.759,336.062 278.475,336.062 278.714 C 336.062 278.952,335.624 279.529,335.088 279.995 C 334.552 280.461,334.113 280.985,334.113 281.160 C 334.113 281.448,329.834 287.277,327.868 289.669 C 327.427 290.205,325.658 292.358,323.937 294.454 C 320.862 298.197,311.661 307.602,311.073 307.602 C 310.909 307.602,310.670 307.928,310.544 308.326 C 310.418 308.725,309.978 309.207,309.566 309.398 C 309.155 309.590,307.975 310.540,306.943 311.509 C 304.565 313.746,296.795 320.147,294.629 321.654 C 293.724 322.285,292.281 323.322,291.423 323.959 C 290.565 324.597,289.206 325.479,288.402 325.920 C 287.597 326.361,286.940 326.860,286.940 327.028 C 286.940 327.197,286.254 327.638,285.417 328.007 C 284.579 328.377,283.252 329.115,282.468 329.647 C 281.683 330.179,280.483 330.848,279.800 331.134 C 279.116 331.419,278.317 331.943,278.022 332.298 C 277.728 332.653,277.192 332.943,276.831 332.943 C 276.470 332.943,275.580 333.382,274.854 333.918 C 274.127 334.454,273.295 334.893,273.003 334.893 C 272.712 334.893,271.825 335.241,271.032 335.667 C 269.142 336.681,265.306 338.402,264.935 338.402 C 264.774 338.402,264.171 338.737,263.595 339.148 C 263.018 339.558,261.893 340.017,261.095 340.166 C 260.296 340.316,259.249 340.747,258.769 341.124 C 258.288 341.501,257.281 341.941,256.530 342.103 C 255.780 342.265,254.552 342.710,253.801 343.092 C 253.051 343.474,251.735 343.966,250.877 344.185 C 247.694 345.000,243.823 346.221,242.631 346.786 C 241.955 347.106,240.808 347.368,240.082 347.368 C 239.356 347.368,238.066 347.733,237.217 348.179 C 236.368 348.624,234.476 349.147,233.014 349.341 C 231.551 349.535,229.208 350.047,227.807 350.480 C 226.239 350.964,224.166 351.267,222.419 351.267 C 220.857 351.267,217.849 351.640,215.735 352.096 C 210.247 353.281,180.593 353.441,176.803 352.307 C 175.517 351.922,172.446 351.451,169.981 351.260 C 167.515 351.069,164.711 350.628,163.750 350.281 C 162.790 349.934,160.772 349.505,159.267 349.329 C 157.762 349.153,155.741 348.644,154.776 348.197 C 153.811 347.751,152.528 347.382,151.924 347.377 C 151.321 347.372,150.005 347.022,149.000 346.598 C 147.995 346.175,146.472 345.661,145.614 345.455 C 143.505 344.951,140.450 343.881,138.791 343.066 C 138.041 342.697,136.734 342.272,135.888 342.121 C 135.042 341.970,133.919 341.508,133.393 341.094 C 132.867 340.680,131.779 340.236,130.975 340.108 C 127.857 339.609,126.589 337.390,128.343 335.502 C 128.729 335.086,129.047 334.472,129.051 334.137 C 129.054 333.802,129.273 333.147,129.538 332.681 C 130.955 330.188,132.554 326.912,132.554 326.501 C 132.554 326.243,132.882 325.613,133.283 325.101 C 133.683 324.590,134.132 323.620,134.279 322.945 C 134.427 322.270,134.885 321.413,135.297 321.040 C 135.710 320.666,136.158 319.769,136.294 319.045 C 136.430 318.322,136.687 317.640,136.865 317.530 C 137.306 317.257,141.520 308.649,141.520 308.021 C 141.520 307.746,141.959 306.999,142.495 306.362 C 143.031 305.725,143.470 304.874,143.470 304.471 C 143.470 304.068,143.908 303.092,144.444 302.302 C 144.981 301.512,145.419 300.550,145.419 300.164 C 145.419 299.777,145.590 299.355,145.799 299.226 C 146.209 298.973,148.928 293.429,148.928 292.846 C 148.928 292.652,149.195 292.272,149.521 292.001 C 149.847 291.730,150.304 290.755,150.536 289.833 C 150.768 288.911,151.290 287.856,151.697 287.488 C 152.104 287.120,152.437 286.603,152.437 286.339 C 152.437 286.075,153.226 284.337,154.191 282.477 C 155.156 280.617,155.945 278.914,155.945 278.692 C 155.945 278.470,156.298 277.793,156.728 277.189 C 157.159 276.584,157.618 275.557,157.748 274.907 C 157.878 274.256,158.312 273.428,158.712 273.066 C 159.112 272.704,159.550 271.816,159.686 271.092 C 159.821 270.369,160.065 269.695,160.227 269.595 C 160.487 269.434,163.091 264.227,165.980 258.090 C 166.535 256.910,167.140 255.682,167.325 255.361 C 167.510 255.039,168.015 253.986,168.448 253.021 C 168.881 252.057,169.401 251.004,169.603 250.682 C 170.275 249.612,172.320 245.262,172.320 244.903 C 172.320 244.709,172.648 244.131,173.049 243.620 C 173.450 243.108,173.898 242.138,174.045 241.463 C 174.193 240.789,174.637 239.944,175.032 239.586 C 175.428 239.228,175.861 238.350,175.995 237.636 C 176.129 236.921,176.488 236.129,176.793 235.875 C 177.098 235.622,177.555 234.771,177.809 233.984 C 178.062 233.197,178.438 232.341,178.644 232.080 C 179.336 231.207,181.262 227.102,181.274 226.474 C 181.281 226.132,181.627 225.543,182.044 225.166 C 182.461 224.789,182.918 223.954,183.059 223.309 C 183.200 222.665,183.737 221.519,184.251 220.761 C 184.765 220.004,185.185 219.068,185.185 218.682 C 185.185 218.296,185.375 217.862,185.607 217.719 C 185.839 217.575,186.378 216.644,186.803 215.649 C 187.229 214.654,187.947 213.445,188.398 212.963 L 189.220 212.086 275.289 212.086 C 324.503 212.086,361.448 212.233,361.570 212.429 " stroke="none" fill="#6bb087" fill-rule="evenodd"></path></g></svg>